<?xml version="1.0" encoding="UTF-8" standalone="no"?>
<svg width="15px" height="15px" viewBox="0 0 15 15" version="1.1" xmlns="http://www.w3.org/2000/svg" xmlns:xlink="http://www.w3.org/1999/xlink" xmlns:sketch="http://www.bohemiancoding.com/sketch/ns">
    <!-- Generator: Sketch 3.0.3 (7891) - http://www.bohemiancoding.com/sketch -->
    <title>bacteria-2</title>
    <desc>Created with Sketch.</desc>
    <defs></defs>
    <g id="Page-1" stroke="none" stroke-width="1" fill="none" fill-rule="evenodd" sketch:type="MSPage">
        <g id="bacteria-2" sketch:type="MSLayerGroup" transform="translate(1.000000, 0.000000)">
            <path d="M0.648,3.162 L3.098,5.143 M11.797,0.495 L8.986,4.84 M12.627,6.565 L10.391,6.565 M13.074,12.634 L9.624,9.886 M8.027,13.656 L7.58,11.26 M4.96,10.909 L1.872,14.743 M3.098,8.609 L-0.215,9.312" id="Stroke-1" stroke="#D37037" stroke-width="0.945" stroke-linecap="round" sketch:type="MSShapeGroup"></path>
            <path d="M11.333,7.667 C11.333,10.155 9.316,12.171 6.829,12.171 C4.341,12.171 2.324,10.155 2.324,7.667 C2.324,5.179 4.341,3.163 6.829,3.163 C9.316,3.163 11.333,5.179 11.333,7.667" id="Fill-2" fill="#DB8854" sketch:type="MSShapeGroup"></path>
            <path d="M11.333,7.667 C11.333,10.155 9.316,12.171 6.829,12.171 C4.341,12.171 2.324,10.155 2.324,7.667 C2.324,5.179 4.341,3.163 6.829,3.163 C9.316,3.163 11.333,5.179 11.333,7.667 L11.333,7.667 Z" id="Stroke-3" stroke="#D37037" stroke-width="0.945" sketch:type="MSShapeGroup"></path>
        </g>
    </g>
</svg>