<?xml version="1.0" encoding="UTF-8" standalone="no"?>
<svg width="44px" height="44px" viewBox="0 0 44 44" version="1.1" xmlns="http://www.w3.org/2000/svg" xmlns:xlink="http://www.w3.org/1999/xlink" xmlns:sketch="http://www.bohemiancoding.com/sketch/ns">
    <!-- Generator: Sketch 3.0.3 (7891) - http://www.bohemiancoding.com/sketch -->
    <title>bacteria-3</title>
    <desc>Created with Sketch.</desc>
    <defs></defs>
    <g id="Page-1" stroke="none" stroke-width="1" fill="none" fill-rule="evenodd" sketch:type="MSPage">
        <g id="bacteria-3" sketch:type="MSLayerGroup" transform="translate(1.000000, 1.000000)">
            <path d="M42.628,20.813 C42.628,32.559 33.106,42.081 21.36,42.081 C9.614,42.081 0.093,32.559 0.093,20.813 C0.093,9.067 9.614,-0.455 21.36,-0.455 C33.106,-0.455 42.628,9.067 42.628,20.813" id="Fill-1" fill="#FFFFFF" sketch:type="MSShapeGroup"></path>
            <path d="M42.628,20.813 C42.628,32.559 33.106,42.081 21.36,42.081 C9.614,42.081 0.093,32.559 0.093,20.813 C0.093,9.067 9.614,-0.455 21.36,-0.455 C33.106,-0.455 42.628,9.067 42.628,20.813 L42.628,20.813 Z" id="Stroke-2" stroke="#123C54" stroke-width="0.709" sketch:type="MSShapeGroup"></path>
            <path d="M19.147,25.235 C19.34,26.558 18.425,27.787 17.101,27.98 C15.777,28.174 14.549,27.257 14.355,25.934 L12.894,15.914 C12.7,14.592 13.615,13.363 14.939,13.169 C16.262,12.976 17.491,13.892 17.684,15.216 L19.147,25.235" id="Fill-3" fill="#DB8854" sketch:type="MSShapeGroup"></path>
            <path d="M19.147,25.235 C19.34,26.558 18.425,27.787 17.101,27.98 C15.777,28.174 14.549,27.257 14.355,25.934 L12.894,15.914 C12.7,14.592 13.615,13.363 14.939,13.169 C16.262,12.976 17.491,13.892 17.684,15.216 L19.147,25.235 L19.147,25.235 Z" id="Stroke-4" stroke="#D37037" stroke-width="0.945" sketch:type="MSShapeGroup"></path>
            <path d="M31.019,26.897 C31.485,28.15 30.848,29.543 29.594,30.01 C28.34,30.477 26.947,29.839 26.48,28.587 L22.947,19.097 C22.48,17.843 23.119,16.449 24.372,15.983 C25.626,15.515 27.02,16.153 27.486,17.407 L31.019,26.897" id="Fill-5" fill="#DB8854" sketch:type="MSShapeGroup"></path>
            <path d="M31.019,26.897 C31.485,28.15 30.848,29.543 29.594,30.01 C28.34,30.477 26.947,29.839 26.48,28.587 L22.947,19.097 C22.48,17.843 23.119,16.449 24.372,15.983 C25.626,15.515 27.02,16.153 27.486,17.407 L31.019,26.897 L31.019,26.897 Z" id="Stroke-6" stroke="#D37037" stroke-width="0.945" sketch:type="MSShapeGroup"></path>
            <path d="M23.277,15.939 C22.806,17.191 21.41,17.822 20.159,17.352 C18.906,16.88 18.274,15.483 18.745,14.232 L22.313,4.756 C22.784,3.504 24.181,2.871 25.433,3.343 C26.684,3.814 27.317,5.211 26.845,6.462 L23.277,15.939" id="Fill-7" fill="#DB8854" sketch:type="MSShapeGroup"></path>
            <path d="M23.277,15.939 C22.806,17.191 21.41,17.822 20.159,17.352 C18.906,16.88 18.274,15.483 18.745,14.232 L22.313,4.756 C22.784,3.504 24.181,2.871 25.433,3.343 C26.684,3.814 27.317,5.211 26.845,6.462 L23.277,15.939 L23.277,15.939 Z" id="Stroke-8" stroke="#D37037" stroke-width="0.945" sketch:type="MSShapeGroup"></path>
            <path d="M21.255,37.616 C20.885,38.902 19.544,39.642 18.259,39.272 C16.973,38.902 16.233,37.561 16.602,36.276 L19.406,26.545 C19.776,25.261 21.117,24.519 22.402,24.89 C23.688,25.259 24.429,26.602 24.058,27.886 L21.255,37.616" id="Fill-9" fill="#DB8854" sketch:type="MSShapeGroup"></path>
            <path d="M21.255,37.616 C20.885,38.902 19.544,39.642 18.259,39.272 C16.973,38.902 16.233,37.561 16.602,36.276 L19.406,26.545 C19.776,25.261 21.117,24.519 22.402,24.89 C23.688,25.259 24.429,26.602 24.058,27.886 L21.255,37.616 L21.255,37.616 Z" id="Stroke-10" stroke="#D37037" stroke-width="0.945" sketch:type="MSShapeGroup"></path>
        </g>
    </g>
</svg>