<?xml version="1.0" encoding="UTF-8" standalone="no"?>
<svg width="86px" height="86px" viewBox="0 0 86 86" version="1.1" xmlns="http://www.w3.org/2000/svg" xmlns:xlink="http://www.w3.org/1999/xlink" xmlns:sketch="http://www.bohemiancoding.com/sketch/ns">
    <!-- Generator: Sketch 3.0.3 (7891) - http://www.bohemiancoding.com/sketch -->
    <title>lungs</title>
    <desc>Created with Sketch.</desc>
    <defs></defs>
    <g id="Page-1" stroke="none" stroke-width="1" fill="none" fill-rule="evenodd" sketch:type="MSPage">
        <g id="lungs" sketch:type="MSLayerGroup" transform="translate(7.000000, 5.000000)" stroke="#FFFFFF" stroke-width="0.473" fill="#DC42B9" fill-opacity="0.432093524">
            <path d="M32.244,6.434 C32.244,6.434 26.956,-1.197 21.734,-0.193 C16.513,0.811 14.705,3.164 9.685,11.025 C4.664,18.885 3.058,19.487 1.451,26.316 C-0.155,33.143 -0.356,47.737 0.648,54.498 C0.648,54.498 1.199,62.706 1.199,63.71 C1.199,64.714 2.698,64.614 4.706,64.614 C4.706,64.614 9.217,64.672 10.756,64.371 C12.296,64.07 13.534,63.133 14.873,63.133 C16.211,63.133 16.613,63.802 20.563,62.731 C24.512,61.66 30.102,60.053 34.052,57.71 C38.001,55.368 39.775,53.326 39.875,50.012 C39.975,46.698 40.277,38.231 39.273,35.955 C39.273,35.955 38.469,29.461 38.068,27.118 C37.666,24.775 37.399,22.031 36.93,21.228 C36.461,20.424 36.193,19.956 35.457,19.487 C34.721,19.018 34.252,19.353 34.052,18.283 C33.85,17.212 33.516,13.529 33.717,12.726 C33.918,11.924 34.252,11.187 34.052,10.585 C33.85,9.981 34.922,8.375 35.993,8.308 C37.064,8.242 37.934,9.179 38.469,9.179 C39.005,9.179 39.742,11.387 40.544,11.387 C41.348,11.387 41.816,12.392 42.085,13.061 C42.352,13.73 42.754,14.199 43.222,15.002 C43.691,15.806 43.891,15.873 43.557,17.212 C43.222,18.55 44.36,18.684 43.423,19.555 C42.485,20.424 41.616,21.027 41.549,21.428 C41.481,21.83 41.481,23.811 42.218,25.33 C42.954,26.851 43.311,27.32 43.803,29.394 C44.293,31.469 44.226,33.88 45.097,35.352 C45.967,36.825 47.306,37.361 49.314,38.298 C51.322,39.235 52.326,40.239 53.196,41.11 C54.067,41.98 54.134,42.448 54.602,42.916 C55.071,43.385 55.406,45.327 55.271,46.8 C55.138,48.272 55.271,49.209 54.469,50.012 C53.665,50.816 52.928,52.088 52.259,52.757 C51.59,53.427 50.585,54.096 50.787,55.903 C50.987,57.71 51.724,59.652 53.063,60.321 C54.401,60.99 58.618,61.459 60.091,62.329 C61.563,63.2 61.765,62.798 61.765,63.937 C61.765,65.074 61.363,66.346 60.091,67.617 C58.82,68.89 58.217,68.89 58.217,68.89 C58.217,68.89 59.824,70.764 60.292,71.031 C60.761,71.299 61.765,71.568 61.765,71.299 C61.765,71.031 63.371,68.287 65.647,69.559 C67.924,70.831 68.726,72.839 68.726,72.839 C68.726,72.839 70.333,72.973 71.271,72.17 C72.208,71.366 72.275,71.166 71.739,67.684 C71.204,64.204 71.538,60.924 71.806,57.108 C72.073,53.292 72.61,47.804 71.204,39.369 C71.204,39.369 69.329,26.985 65.246,20.893 C61.163,14.802 59.89,12.659 57.748,10.45 C55.606,8.242 53.397,4.961 51.59,3.287 C49.783,1.614 47.64,0.142 45.766,-0.06 C43.891,-0.26 42.553,-0.46 41.549,1.748 C40.544,3.957 39.01,6.174 38.871,7.171 C38.782,7.809 38.704,8.933 38.469,9.179 C37.523,8.628 36.145,8.247 35.993,8.308 C35.182,8.628 34.348,9.538 33.471,9.669 C33.022,9.735 33.301,8.015 32.621,7.767 C32.166,7.602 32.919,6.649 32.244,6.434 L32.244,6.434 Z" id="Stroke-1" sketch:type="MSShapeGroup"></path>
        </g>
    </g>
</svg>