<?xml version="1.0" encoding="UTF-8" standalone="no"?>
<svg width="48px" height="27px" viewBox="0 0 48 27" version="1.1" xmlns="http://www.w3.org/2000/svg" xmlns:xlink="http://www.w3.org/1999/xlink" xmlns:sketch="http://www.bohemiancoding.com/sketch/ns">
    <!-- Generator: Sketch 3.0.3 (7891) - http://www.bohemiancoding.com/sketch -->
    <title>text-4</title>
    <desc>Created with Sketch.</desc>
    <defs></defs>
    <g id="Page-1" stroke="none" stroke-width="1" fill="none" fill-rule="evenodd" sketch:type="MSPage">
        <g id="text-4" sketch:type="MSLayerGroup">
            <path d="M0.044235,4.80736767 L0.044235,3.91388067 L2.6225832,0.237819872 L3.6096736,0.237819872 L3.6096736,3.88835247 L4.171294,3.88835247 L4.171294,4.80736767 L3.6096736,4.80736767 L3.6096736,6.36458787 L2.5374892,6.36458787 L2.5374892,4.80736767 L0.044235,4.80736767 Z M1.0823818,3.88835247 L2.5374892,3.88835247 L2.5374892,1.81205887 L1.0823818,3.88835247 Z M5.3298006,6.40713487 C5.11422806,6.40713487 4.95255107,6.35040611 4.8447648,6.23694687 C4.73697853,6.12348764 4.6830862,5.96464709 4.6830862,5.76042047 C4.6830862,5.55619385 4.73697853,5.39735331 4.8447648,5.28389407 C4.95255107,5.17043484 5.11422806,5.11370607 5.3298006,5.11370607 C5.54537314,5.11370607 5.70705013,5.17043484 5.8148364,5.28389407 C5.92262267,5.39735331 5.976515,5.55619385 5.976515,5.76042047 C5.976515,5.96464709 5.92262267,6.12348764 5.8148364,6.23694687 C5.70705013,6.35040611 5.54537314,6.40713487 5.3298006,6.40713487 L5.3298006,6.40713487 Z" id="4.--" fill="#131514" sketch:type="MSShapeGroup"></path>
            <path d="M9.65219854,6.36458787 L9.65219854,0.152725872 L10.8945709,0.152725872 L10.8945709,6.36458787 L9.65219854,6.36458787 Z M13.4232909,6.36458787 L13.4232909,1.21640087 L11.7214109,1.21640087 L11.7214109,0.152725872 L16.3760527,0.152725872 L16.3760527,1.21640087 L14.6656633,1.21640087 L14.6656633,6.36458787 L13.4232909,6.36458787 Z M18.9657667,6.36458787 L18.9657667,0.152725872 L20.0294417,0.152725872 L21.6887747,3.05443127 L23.3821453,0.152725872 L24.3692357,0.152725872 L24.3692357,6.36458787 L23.1864291,6.36458787 L23.1864291,2.30560407 L22.0376601,4.28829427 L21.2803235,4.28829427 L20.1485733,2.30560407 L20.1485733,6.36458787 L18.9657667,6.36458787 Z M25.0769441,6.36458787 L26.9830497,0.152725872 L28.4721947,0.152725872 L30.3868097,6.36458787 L29.0508339,6.36458787 L28.6508921,4.92649927 L26.7192583,4.92649927 L26.3278259,6.36458787 L25.0769441,6.36458787 Z M26.9915591,3.91388067 L28.4211383,3.91388067 L27.6978393,1.27596667 L26.9915591,3.91388067 Z M31.0945181,6.36458787 L31.0945181,0.152725872 L32.3368905,0.152725872 L32.3368905,6.36458787 L31.0945181,6.36458787 Z M33.5041065,6.36458787 L33.5041065,0.152725872 L34.6358567,0.152725872 L37.0099793,4.24574727 L37.0099793,0.152725872 L38.1842765,0.152725872 L38.1842765,6.36458787 L37.0440169,6.36458787 L34.6784037,2.28858527 L34.6784037,6.36458787 L33.5041065,6.36458787 Z M39.3514925,6.36458787 L39.3514925,0.152725872 L40.5938649,0.152725872 L40.5938649,5.30091287 L43.0615909,5.30091287 L43.0615909,6.36458787 L39.3514925,6.36458787 Z M44.3479385,6.36458787 L44.3479385,3.84580547 L42.4673611,0.152725872 L43.7948275,0.152725872 L44.9691247,2.72256467 L46.1519313,0.152725872 L47.4283413,0.152725872 L45.5903109,3.82878667 L45.5903109,6.36458787 L44.3479385,6.36458787 Z" id="IT-MAINLY-" fill="#1EA69E" sketch:type="MSShapeGroup"></path>
            <path d="M-0.0323496,16.5758679 L1.873756,10.3640059 L3.362901,10.3640059 L5.277516,16.5758679 L3.9415402,16.5758679 L3.5415984,15.1377793 L1.6099646,15.1377793 L1.2185322,16.5758679 L-0.0323496,16.5758679 Z M1.8822654,14.1251607 L3.3118446,14.1251607 L2.5885456,11.4872467 L1.8822654,14.1251607 Z M5.9849244,16.5758679 L5.9849244,10.3640059 L9.5333442,10.3640059 L9.5333442,11.4021527 L7.1932592,11.4021527 L7.1932592,12.9849011 L9.2695528,12.9849011 L9.2695528,14.0230479 L7.1932592,14.0230479 L7.1932592,16.5758679 L5.9849244,16.5758679 Z M10.3939218,16.5758679 L10.3939218,10.3640059 L13.9423416,10.3640059 L13.9423416,11.4021527 L11.6022566,11.4021527 L11.6022566,12.9849011 L13.6785502,12.9849011 L13.6785502,14.0230479 L11.6022566,14.0230479 L11.6022566,16.5758679 L10.3939218,16.5758679 Z M14.8029192,16.5758679 L14.8029192,10.3640059 L18.4704706,10.3640059 L18.4704706,11.4021527 L16.0027446,11.4021527 L16.0027446,12.8742789 L18.2151886,12.8742789 L18.2151886,13.9124257 L16.0027446,13.9124257 L16.0027446,15.5377211 L18.5810928,15.5377211 L18.5810928,16.5758679 L14.8029192,16.5758679 Z M23.4155602,16.3886611 C23.1999877,16.4680825 22.9631451,16.5347388 22.7050253,16.588632 C22.4469055,16.6425251 22.1561706,16.6694713 21.8328118,16.6694713 C21.3449371,16.6694713 20.9379082,16.6013968 20.6117129,16.4652457 C20.2855176,16.3290946 20.0231471,16.1291257 19.8245934,15.865333 C19.6260397,15.6015403 19.485636,15.2739316 19.4033781,14.8824973 C19.3211202,14.4910629 19.2799918,14.0400692 19.2799918,13.5295027 C19.2799918,12.9905713 19.3253748,12.5168861 19.4161422,12.1084329 C19.5069096,11.6999796 19.6515679,11.359607 19.8501216,11.0873049 C20.0486753,10.8150027 20.3096276,10.6107792 20.6329864,10.4746281 C20.9563452,10.338477 21.3477737,10.2704025 21.8072836,10.2704025 C22.1136235,10.2704025 22.3958491,10.2973486 22.6539689,10.3512418 C22.9120887,10.4051349 23.1489313,10.4717912 23.3645038,10.5512127 L23.3645038,11.4191715 C23.1772961,11.3964796 22.9603085,11.3737881 22.7135347,11.3510963 C22.4667609,11.3284044 22.241264,11.3170587 22.0370374,11.3170587 C21.7590623,11.3170587 21.5250561,11.3496777 21.3350119,11.4149168 C21.1449677,11.4801558 20.9903818,11.5936134 20.8712496,11.7552928 C20.7521174,11.9169722 20.6670243,12.1353779 20.6159676,12.4105166 C20.5649109,12.6856552 20.539383,13.0359553 20.539383,13.4614275 C20.539383,13.8868996 20.5663292,14.2400362 20.6202223,14.5208478 C20.6741154,14.8016594 20.762045,15.0229016 20.8840137,15.184581 C21.0059824,15.3462604 21.1662411,15.4597179 21.3647948,15.524957 C21.5633485,15.590196 21.8072822,15.6228151 22.0966032,15.6228151 C22.3235217,15.6228151 22.558946,15.6100511 22.8028834,15.5845228 C23.0468208,15.5589944 23.2510443,15.5377212 23.4155602,15.5207023 L23.4155602,16.3886611 Z M25.8078298,16.5758679 L25.8078298,11.4276809 L24.1059498,11.4276809 L24.1059498,10.3640059 L28.7605916,10.3640059 L28.7605916,11.4276809 L27.0502022,11.4276809 L27.0502022,16.5758679 L25.8078298,16.5758679 Z M29.3999248,15.4441177 C29.6325162,15.4781554 29.9005596,15.5093563 30.2040631,15.5377211 C30.5075666,15.5660859 30.7926286,15.5802681 31.0592578,15.5802681 C31.2407926,15.5802681 31.4010513,15.5717588 31.5400389,15.5547399 C31.6790265,15.537721 31.7939022,15.5008473 31.8846696,15.4441177 C31.975437,15.3873881 32.0435115,15.309386 32.0888952,15.2101092 C32.1342789,15.1108323 32.1569704,14.9761015 32.1569704,14.8059127 C32.1569704,14.6697616 32.1399518,14.5563041 32.105914,14.4655367 C32.0718762,14.3747693 32.0151475,14.2996037 31.935726,14.2400376 C31.8563045,14.1804715 31.7541928,14.1308338 31.6293876,14.0911231 C31.5045824,14.0514123 31.3485783,14.0088658 31.1613706,13.9634821 L30.9401262,13.9124257 C30.67917,13.8556961 30.446582,13.7833669 30.2423554,13.695436 C30.0381288,13.6075051 29.8636878,13.4940475 29.7190273,13.35506 C29.5743668,13.2160724 29.4637457,13.0473043 29.3871607,12.8487507 C29.3105757,12.650197 29.2722838,12.4062633 29.2722838,12.1169423 C29.2722838,11.5099354 29.448143,11.0504324 29.7998666,10.7384195 C30.1515902,10.4264066 30.6961864,10.2704025 31.4336714,10.2704025 C31.7229924,10.2704025 32.0165638,10.3001851 32.3143943,10.3597512 C32.6122248,10.4193173 32.8774318,10.48881 33.1100232,10.5682315 L33.1100232,11.4446997 C32.9114695,11.4220078 32.6732087,11.3993163 32.3952336,11.3766245 C32.1172585,11.3539326 31.8477968,11.3425869 31.5868406,11.3425869 C31.4109788,11.3425869 31.2563929,11.349678 31.1230783,11.3638604 C30.9897637,11.3780428 30.8763062,11.4106618 30.7827023,11.4617185 C30.6890984,11.5127751 30.6181875,11.5851043 30.5699673,11.6787082 C30.5217471,11.772312 30.4976374,11.8956971 30.4976374,12.0488671 C30.4976374,12.2984774 30.5770577,12.4800094 30.7359006,12.5934687 C30.8947435,12.7069279 31.1386772,12.7976939 31.467709,12.8657695 L31.6719346,12.9083165 C31.9782745,12.9707191 32.2406451,13.0501393 32.4590541,13.1465797 C32.6774631,13.24302 32.8561587,13.3621504 32.9951463,13.5039745 C33.1341339,13.6457985 33.2362456,13.817403 33.3014847,14.0187932 C33.3667238,14.2201833 33.3993428,14.4570259 33.3993428,14.7293281 C33.3993428,15.0810517 33.3497051,15.3802959 33.2504283,15.6270698 C33.1511515,15.8738436 33.0079113,16.0738125 32.8207036,16.2269825 C32.6334959,16.3801524 32.4051626,16.4921918 32.1356969,16.5631038 C31.8662312,16.6340158 31.5613141,16.6694713 31.2209364,16.6694713 C31.0337287,16.6694713 30.8493602,16.6581255 30.6678254,16.6354337 C30.4862906,16.6127418 30.3161043,16.5829592 30.1572614,16.546085 C29.9984185,16.5092107 29.8537601,16.4709188 29.723282,16.4312081 C29.5928039,16.3914973 29.4850192,16.3546236 29.3999248,16.3205859 L29.3999248,15.4441177 Z" id="AFFECTS-" fill="#1EA69E" sketch:type="MSShapeGroup"></path>
            <path d="M1.788662,26.3645879 L1.788662,21.2164009 L0.086782,21.2164009 L0.086782,20.1527259 L4.7414238,20.1527259 L4.7414238,21.2164009 L3.0310344,21.2164009 L3.0310344,26.3645879 L1.788662,26.3645879 Z M5.5681638,26.3645879 L5.5681638,20.1527259 L6.8105362,20.1527259 L6.8105362,22.6119425 L8.9889426,22.6119425 L8.9889426,20.1527259 L10.231315,20.1527259 L10.231315,26.3645879 L8.9889426,26.3645879 L8.9889426,23.6756175 L6.8105362,23.6756175 L6.8105362,26.3645879 L5.5681638,26.3645879 Z M11.398431,26.3645879 L11.398431,20.1527259 L15.0659824,20.1527259 L15.0659824,21.1908727 L12.5982564,21.1908727 L12.5982564,22.6629989 L14.8107004,22.6629989 L14.8107004,23.7011457 L12.5982564,23.7011457 L12.5982564,25.3264411 L15.1766046,25.3264411 L15.1766046,26.3645879 L11.398431,26.3645879 Z M17.8512126,26.3645879 L17.8512126,20.1527259 L19.093585,20.1527259 L19.093585,25.3009129 L21.561311,25.3009129 L21.561311,26.3645879 L17.8512126,26.3645879 Z M23.3921602,23.4458637 C23.3921602,23.8656628 23.4091788,24.203199 23.4432166,24.4584823 C23.4772544,24.7137655 23.5354014,24.9137344 23.6176593,25.058395 C23.6999172,25.2030555 23.8091201,25.2994944 23.9452712,25.3477146 C24.0814223,25.3959347 24.2516086,25.4200445 24.4558352,25.4200445 C24.6600618,25.4200445 24.8316663,25.3959347 24.9706539,25.3477146 C25.1096415,25.2994944 25.223099,25.2044737 25.3110299,25.0626497 C25.3989608,24.9208256 25.4613624,24.7208567 25.4982367,24.462737 C25.535111,24.2046172 25.5535478,23.8684993 25.5535478,23.4543731 L25.5535478,20.1527259 L26.7959202,20.1527259 L26.7959202,23.4288449 C26.7959202,23.9564303 26.7576283,24.4102604 26.6810433,24.7903489 C26.6044583,25.1704373 26.4739822,25.4838637 26.2896109,25.7306376 C26.1052396,25.9774114 25.8598877,26.1603617 25.5535478,26.2794939 C25.2472079,26.3986261 24.8642887,26.4581913 24.4047788,26.4581913 C23.9452689,26.4581913 23.5680226,26.4000443 23.2730286,26.2837486 C22.9780346,26.1674529 22.7482831,25.987339 22.5837672,25.7434017 C22.4192513,25.4994643 22.3057938,25.1888743 22.2433912,24.8116224 C22.1809886,24.4343704 22.1497878,23.9876314 22.1497878,23.4713919 L22.1497878,20.1527259 L23.3921602,20.1527259 L23.3921602,23.4458637 Z M27.9630362,26.3645879 L27.9630362,20.1527259 L29.0947864,20.1527259 L31.468909,24.2457473 L31.468909,20.1527259 L32.6432062,20.1527259 L32.6432062,26.3645879 L31.5029466,26.3645879 L29.1373334,22.2885853 L29.1373334,26.3645879 L27.9630362,26.3645879 Z M38.1926632,26.0922871 C37.931707,26.1887274 37.6267898,26.2738206 37.2779027,26.3475691 C36.9290156,26.4213176 36.5673697,26.4581913 36.1929542,26.4581913 C35.7050795,26.4581913 35.2980506,26.3886985 34.9718553,26.249711 C34.64566,26.1107234 34.3847077,25.9079181 34.1889905,25.6412889 C33.9932733,25.3746597 33.8528696,25.047051 33.7677752,24.6584532 C33.6826808,24.2698553 33.6401342,23.8287891 33.6401342,23.3352415 C33.6401342,22.7963101 33.6883537,22.3226249 33.784794,21.9141717 C33.8812343,21.5057184 34.034402,21.1639276 34.2443016,20.888789 C34.4542012,20.6136503 34.7264993,20.4065903 35.061204,20.2676028 C35.3959087,20.1286152 35.8043559,20.0591225 36.2865576,20.0591225 C36.6155894,20.0591225 36.9205065,20.0874869 37.2013181,20.1442165 C37.4821297,20.2009461 37.7331545,20.2690206 37.9544,20.3484421 L37.9544,21.2164009 C37.8693056,21.2107279 37.7700302,21.2008004 37.656571,21.186618 C37.5431118,21.1724356 37.4225631,21.1596716 37.2949215,21.1483257 C37.1672799,21.1369797 37.0368037,21.1270522 36.9034891,21.1185428 C36.7701745,21.1100333 36.6411166,21.1057787 36.5163114,21.1057787 C36.2156444,21.1057787 35.9617832,21.1383977 35.7547201,21.2036368 C35.547657,21.2688758 35.3803071,21.3823334 35.2526655,21.5440128 C35.1250239,21.7056922 35.0314214,21.9255161 34.9718553,22.2034913 C34.9122892,22.4814664 34.8825066,22.8331847 34.8825066,23.2586569 C34.8825066,23.6614372 34.9094528,24.0003915 34.9633459,24.2755302 C35.017239,24.5506688 35.100914,24.7733292 35.2143732,24.9435181 C35.3278324,25.1137069 35.4767454,25.2356738 35.6611167,25.3094223 C35.845488,25.3831708 36.0681484,25.4200445 36.3291046,25.4200445 C36.5390042,25.4200445 36.7857743,25.3945165 37.0694224,25.3434599 L37.0694224,23.9138807 L36.1333884,23.9138807 L36.1333884,22.9863561 L38.1926632,22.9863561 L38.1926632,26.0922871 Z M39.164063,25.2328377 C39.3966544,25.2668754 39.6646978,25.2980763 39.9682013,25.3264411 C40.2717048,25.3548059 40.5567668,25.3689881 40.823396,25.3689881 C41.0049308,25.3689881 41.1651895,25.3604788 41.3041771,25.3434599 C41.4431647,25.326441 41.5580404,25.2895673 41.6488078,25.2328377 C41.7395752,25.1761081 41.8076497,25.098106 41.8530334,24.9988292 C41.8984171,24.8995523 41.9211086,24.7648215 41.9211086,24.5946327 C41.9211086,24.4584816 41.90409,24.3450241 41.8700522,24.2542567 C41.8360144,24.1634893 41.7792857,24.0883237 41.6998642,24.0287576 C41.6204427,23.9691915 41.518331,23.9195538 41.3935258,23.8798431 C41.2687206,23.8401323 41.1127165,23.7975858 40.9255088,23.7522021 L40.7042644,23.7011457 C40.4433082,23.6444161 40.2107202,23.5720869 40.0064936,23.484156 C39.802267,23.3962251 39.627826,23.2827675 39.4831655,23.14378 C39.338505,23.0047924 39.2278839,22.8360243 39.1512989,22.6374707 C39.0747139,22.438917 39.036422,22.1949833 39.036422,21.9056623 C39.036422,21.2986554 39.2122812,20.8391524 39.5640048,20.5271395 C39.9157284,20.2151266 40.4603246,20.0591225 41.1978096,20.0591225 C41.4871306,20.0591225 41.780702,20.0889051 42.0785325,20.1484712 C42.376363,20.2080373 42.64157,20.27753 42.8741614,20.3569515 L42.8741614,21.2334197 C42.6756077,21.2107278 42.4373469,21.1880363 42.1593718,21.1653445 C41.8813967,21.1426526 41.611935,21.1313069 41.3509788,21.1313069 C41.175117,21.1313069 41.0205311,21.138398 40.8872165,21.1525804 C40.7539019,21.1667628 40.6404444,21.1993818 40.5468405,21.2504385 C40.4532366,21.3014951 40.3823257,21.3738243 40.3341055,21.4674282 C40.2858853,21.561032 40.2617756,21.6844171 40.2617756,21.8375871 C40.2617756,22.0871974 40.3411959,22.2687294 40.5000388,22.3821887 C40.6588817,22.4956479 40.9028154,22.5864139 41.2318472,22.6544895 L41.4360728,22.6970365 C41.7424127,22.7594391 42.0047833,22.8388593 42.2231923,22.9352997 C42.4416013,23.03174 42.6202969,23.1508704 42.7592845,23.2926945 C42.8982721,23.4345185 43.0003838,23.606123 43.0656229,23.8075132 C43.130862,24.0089033 43.163481,24.2457459 43.163481,24.5180481 C43.163481,24.8697717 43.1138433,25.1690159 43.0145665,25.4157898 C42.9152897,25.6625636 42.7720495,25.8625325 42.5848418,26.0157025 C42.3976341,26.1688724 42.1693008,26.2809118 41.8998351,26.3518238 C41.6303694,26.4227358 41.3254523,26.4581913 40.9850746,26.4581913 C40.7978669,26.4581913 40.6134984,26.4468455 40.4319636,26.4241537 C40.2504288,26.4014618 40.0802425,26.3716792 39.9213996,26.334805 C39.7625567,26.2979307 39.6178983,26.2596388 39.4874202,26.2199281 C39.3569421,26.1802173 39.2491574,26.1433436 39.164063,26.1093059 L39.164063,25.2328377 Z" id="THE-LUNGS" fill="#1EA69E" sketch:type="MSShapeGroup"></path>
        </g>
    </g>
</svg>