<?xml version="1.0" encoding="UTF-8" standalone="no"?>
<svg width="86px" height="38px" viewBox="0 0 86 38" version="1.1" xmlns="http://www.w3.org/2000/svg" xmlns:xlink="http://www.w3.org/1999/xlink" xmlns:sketch="http://www.bohemiancoding.com/sketch/ns">
    <!-- Generator: Sketch 3.0.3 (7891) - http://www.bohemiancoding.com/sketch -->
    <title>text-2</title>
    <desc>Created with Sketch.</desc>
    <defs></defs>
    <g id="Page-1" stroke="none" stroke-width="1" fill="none" fill-rule="evenodd" sketch:type="MSPage">
        <g id="text-2" sketch:type="MSLayerGroup">
            <path d="M0.4849888,6.58428787 L0.4849888,5.46955647 C0.4849888,5.14052469 0.516189621,4.85829908 0.5785922,4.62287117 C0.640994779,4.38744326 0.736015462,4.18180148 0.8636571,4.00593967 C0.991298738,3.83007786 1.15297572,3.67549197 1.3486929,3.54217737 C1.54441008,3.40886277 1.77841624,3.27980483 2.0507184,3.15499967 L2.254944,3.06139627 C2.53291912,2.93659111 2.72154227,2.81320605 2.8208191,2.69123737 C2.92009593,2.5692687 2.9697336,2.40050062 2.9697336,2.18492807 C2.9697336,2.02608514 2.94704209,1.8970272 2.9016584,1.79775037 C2.85627471,1.69847354 2.79103663,1.62047149 2.7059422,1.56374187 C2.62084777,1.50701226 2.51731778,1.47013856 2.3953491,1.45311967 C2.27338042,1.43610079 2.13581317,1.42759147 1.9826432,1.42759147 C1.86918397,1.42759147 1.75005356,1.43042791 1.6252484,1.43610087 C1.50044324,1.44177383 1.37705818,1.45028315 1.2550895,1.46162907 C1.13312082,1.472975 1.01682685,1.48573897 0.9062041,1.49992137 C0.795581347,1.51410378 0.697724225,1.52970419 0.6126298,1.54672307 L0.6126298,0.670254872 C0.833875306,0.59650637 1.07639078,0.531268289 1.3401835,0.474538672 C1.60397622,0.417809055 1.89471114,0.389444672 2.212397,0.389444672 C2.50739101,0.389444672 2.77259799,0.420645494 3.0080259,0.483048072 C3.24345381,0.545450651 3.44484093,0.644725992 3.6121933,0.780877072 C3.77954567,0.917028153 3.90718539,1.09430555 3.9951163,1.31271457 C4.08304721,1.5311236 4.127012,1.79633058 4.127012,2.10834347 C4.127012,2.38064563 4.09297474,2.61323357 4.0248992,2.80611427 C3.95682366,2.99899497 3.86180298,3.16492661 3.7398343,3.30391417 C3.61786562,3.44290173 3.47037083,3.56203214 3.2973455,3.66130897 C3.12432017,3.7605858 2.93569702,3.85560649 2.7314704,3.94637387 L2.5357542,4.03146787 C2.18970354,4.17896488 1.95144272,4.35056939 1.8209646,4.54628657 C1.69048648,4.74200375 1.6252484,4.99870142 1.6252484,5.31638727 L1.6252484,5.58868807 L4.127012,5.58868807 L4.127012,6.58428787 L0.4849888,6.58428787 Z M5.5401006,6.62683487 C5.32452806,6.62683487 5.16285107,6.57010611 5.0550648,6.45664687 C4.94727853,6.34318764 4.8933862,6.18434709 4.8933862,5.98012047 C4.8933862,5.77589385 4.94727853,5.61705331 5.0550648,5.50359407 C5.16285107,5.39013484 5.32452806,5.33340607 5.5401006,5.33340607 C5.75567314,5.33340607 5.91735013,5.39013484 6.0251364,5.50359407 C6.13292267,5.61705331 6.186815,5.77589385 6.186815,5.98012047 C6.186815,6.18434709 6.13292267,6.34318764 6.0251364,6.45664687 C5.91735013,6.57010611 5.75567314,6.62683487 5.5401006,6.62683487 L5.5401006,6.62683487 Z" id="2.-" fill="#131514" sketch:type="MSShapeGroup"></path>
            <path d="M9.6496126,6.58428787 L9.6496126,1.43610087 L7.9477326,1.43610087 L7.9477326,0.372425872 L12.6023744,0.372425872 L12.6023744,1.43610087 L10.891985,1.43610087 L10.891985,6.58428787 L9.6496126,6.58428787 Z M13.4291144,6.58428787 L13.4291144,0.372425872 L14.6714868,0.372425872 L14.6714868,2.83164247 L16.8498932,2.83164247 L16.8498932,0.372425872 L18.0922656,0.372425872 L18.0922656,6.58428787 L16.8498932,6.58428787 L16.8498932,3.89531747 L14.6714868,3.89531747 L14.6714868,6.58428787 L13.4291144,6.58428787 Z M19.2593816,6.58428787 L19.2593816,0.372425872 L22.926933,0.372425872 L22.926933,1.41057267 L20.459207,1.41057267 L20.459207,2.88269887 L22.671651,2.88269887 L22.671651,3.92084567 L20.459207,3.92084567 L20.459207,5.54614107 L23.0375552,5.54614107 L23.0375552,6.58428787 L19.2593816,6.58428787 Z M25.7121632,6.58428787 L25.7121632,0.372425872 L29.3797146,0.372425872 L29.3797146,1.41057267 L26.9119886,1.41057267 L26.9119886,2.88269887 L29.1244326,2.88269887 L29.1244326,3.92084567 L26.9119886,3.92084567 L26.9119886,5.54614107 L29.4903368,5.54614107 L29.4903368,6.58428787 L25.7121632,6.58428787 Z M30.4021708,6.58428787 L30.4021708,0.372425872 L31.533921,0.372425872 L33.9080436,4.46544727 L33.9080436,0.372425872 L35.0823408,0.372425872 L35.0823408,6.58428787 L33.9420812,6.58428787 L31.576468,2.50828527 L31.576468,6.58428787 L30.4021708,6.58428787 Z M35.9941748,6.58428787 L35.9941748,5.62272567 L38.8958802,1.41057267 L36.0452312,1.41057267 L36.0452312,0.372425872 L40.3254594,0.372425872 L40.3254594,1.33398807 L37.423754,5.54614107 L40.3850252,5.54614107 L40.3850252,6.58428787 L35.9941748,6.58428787 Z M42.803023,6.58428787 L42.803023,4.06550547 L40.9224456,0.372425872 L42.249912,0.372425872 L43.4242092,2.94226467 L44.6070158,0.372425872 L45.8834258,0.372425872 L44.0453954,4.04848667 L44.0453954,6.58428787 L42.803023,6.58428787 Z M46.5910342,6.58428787 L46.5910342,0.372425872 L47.6547092,0.372425872 L49.3140422,3.27413127 L51.0074128,0.372425872 L51.9945032,0.372425872 L51.9945032,6.58428787 L50.8116966,6.58428787 L50.8116966,2.52530407 L49.6629276,4.50799427 L48.905591,4.50799427 L47.7738408,2.52530407 L47.7738408,6.58428787 L46.5910342,6.58428787 Z M53.1616192,6.58428787 L53.1616192,0.372425872 L56.8291706,0.372425872 L56.8291706,1.41057267 L54.3614446,1.41057267 L54.3614446,2.88269887 L56.5738886,2.88269887 L56.5738886,3.92084567 L54.3614446,3.92084567 L54.3614446,5.54614107 L56.9397928,5.54614107 L56.9397928,6.58428787 L53.1616192,6.58428787 Z" id="THE-ENZYME-" fill="#1EA69E" sketch:type="MSShapeGroup"></path>
            <path d="M4.0163898,16.6509081 C3.84052799,16.7246566 3.64765018,16.7828036 3.4377506,16.8253508 C3.22785102,16.867898 2.99526308,16.8891713 2.7399798,16.8891713 C2.33152656,16.8891713 1.9868993,16.8310243 1.7060877,16.7147286 C1.4252761,16.5984329 1.19836103,16.4381741 1.0253357,16.2339475 C0.852310368,16.0297209 0.726088864,15.7900418 0.6466674,15.5149032 C0.567245936,15.2397645 0.5275358,14.9405203 0.5275358,14.6171615 C0.5275358,14.248419 0.570082375,13.8683362 0.6551768,13.4769019 C0.751617149,13.017392 0.884929749,12.6046902 1.0551186,12.2387842 C1.22530745,11.8728781 1.43378567,11.5594517 1.6805595,11.2984955 C1.92733333,11.0375392 2.21097716,10.8375703 2.5314995,10.6985828 C2.85202184,10.5595952 3.21083128,10.4901025 3.6079386,10.4901025 C3.91427853,10.4901025 4.18799483,10.525558 4.4290957,10.59647 C4.67019657,10.667382 4.88434766,10.7482205 5.0715554,10.8389879 L4.9013674,11.7069467 C4.73685151,11.661563 4.55673768,11.6218528 4.3610205,11.5878151 C4.16530332,11.5537773 3.96817086,11.5367587 3.7696172,11.5367587 C3.48596912,11.5367587 3.23919898,11.5807235 3.0292994,11.6686544 C2.81939982,11.7565853 2.63928598,11.8898979 2.4889525,12.0685962 C2.33861902,12.2472945 2.21381573,12.4699549 2.1145389,12.7365841 C2.01526207,13.0032133 1.93158714,13.3180579 1.8635116,13.6811275 C1.83514679,13.8456434 1.81245529,13.998811 1.7954364,14.1406351 C1.77841751,14.2824591 1.7699082,14.4186082 1.7699082,14.5490863 C1.7699082,14.7476399 1.79401793,14.9277538 1.8422381,15.0894332 C1.89045827,15.2511126 1.9741332,15.3872616 2.0932654,15.4978844 C2.2123976,15.6085071 2.3684017,15.6936003 2.5612824,15.7531664 C2.7541631,15.8127325 2.99526035,15.8425151 3.2845814,15.8425151 C3.39236767,15.8425151 3.52851671,15.8382604 3.6930326,15.829751 C3.85754849,15.8212415 4.02206191,15.8056411 4.1865778,15.7829493 L4.0163898,16.6509081 Z M4.5623196,16.7955679 L7.6086848,10.5837059 L9.0297546,10.5837059 L9.6509408,16.7955679 L8.3830402,16.7955679 L8.2979462,15.3574793 L6.4514064,15.3574793 L5.804692,16.7955679 L4.5623196,16.7955679 Z M6.910914,14.3448607 L8.2383804,14.3448607 L8.0852112,11.7409843 L6.910914,14.3448607 Z M10.3585492,16.7955679 L11.5498652,10.5837059 L13.4985178,10.5837059 C13.765147,10.5837059 14.0090807,10.6219978 14.2303262,10.6985828 C14.4515717,10.7751678 14.6401949,10.8829524 14.7962013,11.02194 C14.9522077,11.1609275 15.0727564,11.3311138 15.1578508,11.532504 C15.2429452,11.7338941 15.2854918,11.9565545 15.2854918,12.2004919 C15.2854918,12.3139511 15.2713096,12.4501001 15.2429448,12.6089431 C15.21458,12.762113 15.1720334,12.9166989 15.1153038,13.0727054 C15.0585742,13.2287118 14.9805721,13.3762066 14.8812953,13.5151942 C14.7820185,13.6541817 14.655797,13.7832397 14.502627,13.9023719 C14.349457,14.0215041 14.1622521,14.1207794 13.9410066,14.2002009 L14.1452322,15.4340639 C14.1622511,15.5531961 14.187779,15.6482168 14.2218168,15.7191288 C14.2558546,15.7900408 14.3012376,15.8439331 14.3579672,15.8808074 C14.4146968,15.9176816 14.487026,15.9432096 14.5749569,15.957392 C14.6628878,15.9715744 14.7720907,15.9786655 14.9025688,15.9786655 L14.757909,16.7530209 C14.6614687,16.7870586 14.566448,16.8111684 14.4728441,16.8253508 C14.3792402,16.8395332 14.2813831,16.8466243 14.1792698,16.8466243 C14.0147539,16.8466243 13.8700956,16.8296056 13.7452904,16.7955679 C13.6204852,16.7615301 13.5127006,16.7062196 13.4219332,16.6296346 C13.3311658,16.5530496 13.2560002,16.4509378 13.1964341,16.3232962 C13.136868,16.1956545 13.0929032,16.0353958 13.0645384,15.8425151 L12.843294,14.3874077 C12.7979103,14.3930806 12.7539455,14.3959171 12.7113983,14.3959171 L12.5795026,14.3959171 L11.992354,14.3959171 L11.5328464,16.7955679 L10.3585492,16.7955679 Z M12.1795608,13.4258455 L12.9624256,13.4258455 C13.2290548,13.4258455 13.4559699,13.3676985 13.6431776,13.2514028 C13.8303853,13.1351071 13.9551886,12.9181195 14.0175912,12.6004337 C14.0289371,12.549377 14.0374464,12.4997393 14.0431194,12.4515192 C14.0487924,12.403299 14.0516288,12.3564978 14.0516288,12.3111141 C14.0516288,12.0671767 13.9764632,11.8842264 13.8261297,11.7622578 C13.6757962,11.6402891 13.4616451,11.5793057 13.18367,11.5793057 L12.5369556,11.5793057 L12.1795608,13.4258455 Z M15.5165738,16.7955679 L16.7163992,10.5837059 L18.7416364,10.5837059 C19.2578759,10.5837059 19.6606502,10.714182 19.9499712,10.9751383 C20.2392922,11.2360945 20.3839506,11.5878129 20.3839506,12.0303039 C20.3839506,12.0927065 20.3811142,12.1565263 20.3754412,12.2217654 C20.3697682,12.2870044 20.3612589,12.3536607 20.349913,12.4217363 C20.2875104,12.756441 20.1712165,13.0173933 20.0010276,13.2046011 C19.8308387,13.3918088 19.6237788,13.5336307 19.3798414,13.6300711 C19.6294517,13.7435303 19.8038927,13.9080437 19.9031695,14.1236163 C20.0024463,14.3391888 20.052084,14.5661039 20.052084,14.8043683 C20.052084,14.9461923 20.0407382,15.073832 20.0180464,15.1872913 C19.9102601,15.7432415 19.6549807,16.1502704 19.2522004,16.4083902 C18.8494201,16.6665099 18.3473705,16.7955679 17.7460366,16.7955679 L15.5165738,16.7955679 Z M16.8525496,15.8084775 L17.797093,15.8084775 C18.0693952,15.8084775 18.294892,15.7517487 18.4735903,15.6382895 C18.6522886,15.5248302 18.7728372,15.3149338 18.8352398,15.0085939 C18.8522587,14.9234994 18.860768,14.8412427 18.860768,14.7618213 C18.860768,14.5632676 18.7997846,14.4001724 18.6778159,14.2725308 C18.5558472,14.1448891 18.3502054,14.0810693 18.0608844,14.0810693 L17.1844162,14.0810693 L16.8525496,15.8084775 Z M17.371623,13.1365259 L18.2395818,13.1365259 C18.4948651,13.1365259 18.7033433,13.0868882 18.8650227,12.9876114 C19.0267021,12.8883345 19.1330685,12.7025478 19.1841252,12.4302457 C19.2011441,12.3451512 19.2096534,12.2628945 19.2096534,12.1834731 C19.2096534,11.7806928 18.9685561,11.5793057 18.4863544,11.5793057 L17.669452,11.5793057 L17.371623,13.1365259 Z M20.1214874,16.7955679 L23.1678526,10.5837059 L24.5889224,10.5837059 L25.2101086,16.7955679 L23.942208,16.7955679 L23.857114,15.3574793 L22.0105742,15.3574793 L21.3638598,16.7955679 L20.1214874,16.7955679 Z M22.4700818,14.3448607 L23.7975482,14.3448607 L23.644379,11.7409843 L22.4700818,14.3448607 Z M27.7727662,13.4769019 L28.4960652,13.4769019 C28.7910592,13.4769019 29.0264836,13.413082 29.2023454,13.2854404 C29.3782072,13.1577987 29.4973376,12.9379748 29.5597402,12.6259619 C29.582432,12.5295215 29.5937778,12.4274097 29.5937778,12.3196235 C29.5937778,12.0813591 29.5214486,11.8984088 29.3767881,11.7707672 C29.2321276,11.6431255 29.0123036,11.5793057 28.7173096,11.5793057 L28.1386704,11.5793057 L27.7727662,13.4769019 Z M25.9092076,16.7955679 L27.109033,10.5837059 L29.0406668,10.5837059 C29.3186419,10.5837059 29.5682485,10.6248342 29.789494,10.7070922 C30.0107395,10.7893501 30.1965262,10.9042259 30.3468597,11.0517229 C30.4971932,11.1992199 30.6120689,11.3750791 30.6914904,11.5793057 C30.7709119,11.7835323 30.810622,12.0076109 30.810622,12.2515483 C30.810622,12.3990453 30.7992762,12.5380308 30.7765844,12.6685089 C30.7198548,12.9918677 30.617743,13.2684204 30.470246,13.4981754 C30.322749,13.7279303 30.1454716,13.9151352 29.9384085,14.0597958 C29.7313454,14.2044563 29.5001757,14.3094045 29.2448924,14.3746436 C28.9896091,14.4398826 28.7258204,14.4725017 28.4535182,14.4725017 L27.5855594,14.4725017 L27.1345612,16.7955679 L25.9092076,16.7955679 Z M30.8034408,16.7955679 L32.0032662,10.5837059 L35.5601954,10.5837059 L35.3559698,11.6218527 L32.9903566,11.6218527 L32.7095464,13.0939789 L34.828387,13.0939789 L34.6241614,14.1321257 L32.5053208,14.1321257 L32.190473,15.7574211 L34.658199,15.7574211 L34.4624828,16.7955679 L30.8034408,16.7955679 Z M35.4253732,16.7955679 L36.6251986,10.5837059 L37.7484394,10.5837059 L39.186528,14.7788401 L40.0034304,10.5837059 L41.1607088,10.5837059 L39.9608834,16.7955679 L38.8121144,16.7955679 L37.3825352,12.6259619 L36.5741422,16.7955679 L35.4253732,16.7955679 Z M41.1279994,16.7955679 L42.3278248,10.5837059 L45.884754,10.5837059 L45.6805284,11.6218527 L43.3149152,11.6218527 L43.034105,13.0939789 L45.1529456,13.0939789 L44.94872,14.1321257 L42.8298794,14.1321257 L42.5150316,15.7574211 L44.9827576,15.7574211 L44.7870414,16.7955679 L41.1279994,16.7955679 Z M45.7499318,16.7955679 L46.9497572,10.5837059 L47.9623758,10.5837059 L48.9409568,13.5364677 L51.0768162,10.5837059 L52.1660194,10.5837059 L50.966194,16.7955679 L49.7918968,16.7955679 L50.583271,12.7195653 L49.1281636,14.7277837 L48.370827,14.7277837 L47.6985844,12.7110559 L46.9072102,16.7955679 L45.7499318,16.7955679 Z M51.6738024,16.7955679 L54.7201676,10.5837059 L56.1412374,10.5837059 L56.7624236,16.7955679 L55.494523,16.7955679 L55.409429,15.3574793 L53.5628892,15.3574793 L52.9161748,16.7955679 L51.6738024,16.7955679 Z M54.0223968,14.3448607 L55.3498632,14.3448607 L55.196694,11.7409843 L54.0223968,14.3448607 Z M57.4445038,15.6127613 C57.6544034,15.6694909 57.8898278,15.7205468 58.150784,15.7659305 C58.4117402,15.8113142 58.6953841,15.8340057 59.001724,15.8340057 C59.3477747,15.8340057 59.6044723,15.7900409 59.7718247,15.70211 C59.9391771,15.6141791 60.0597257,15.4425745 60.1334742,15.1872913 C60.161839,15.085178 60.1760212,15.0000848 60.1760212,14.9320093 C60.1760212,14.7391286 60.0909281,14.5788698 59.9207392,14.4512282 C59.7505503,14.3235865 59.4981073,14.1690006 59.1634026,13.9874659 C59.0102326,13.9023714 58.8584832,13.8130236 58.7081497,13.7194198 C58.5578162,13.6258159 58.4230854,13.5180312 58.3039532,13.3960626 C58.184821,13.2740939 58.0898003,13.1351084 58.0188883,12.979102 C57.9479763,12.8230955 57.9125208,12.6401453 57.9125208,12.4302457 C57.9125208,12.2997676 57.9295394,12.1522728 57.9635772,11.9877569 C58.0770364,11.4658444 58.3223883,11.0857617 58.6996403,10.8474973 C59.0768923,10.6092329 59.560505,10.4901025 60.150493,10.4901025 C60.4965437,10.4901025 60.8128065,10.5241397 61.0992911,10.5922153 C61.3857757,10.6602908 61.6396369,10.7397111 61.8608824,10.8304785 L61.6906944,11.7069467 C61.4751219,11.661563 61.2510432,11.6204346 61.0184518,11.5835604 C60.7858604,11.5466861 60.5362538,11.5282493 60.2696246,11.5282493 C60.065398,11.5282493 59.8966299,11.5410132 59.7633153,11.5665416 C59.6300007,11.5920699 59.522216,11.6289436 59.4399581,11.6771638 C59.3577002,11.7253839 59.2952985,11.7877856 59.2527513,11.8643706 C59.2102041,11.9409556 59.177585,12.0303034 59.1548932,12.1324167 C59.1265284,12.2628948 59.123692,12.3735159 59.1463838,12.4642833 C59.1690756,12.5550507 59.2158769,12.6373074 59.2867889,12.7110559 C59.3577009,12.7848044 59.455558,12.8585518 59.5803632,12.9323003 C59.7051684,13.0060488 59.858336,13.0911419 60.0398708,13.1875823 C60.2327515,13.2896956 60.4114471,13.3932256 60.575963,13.4981754 C60.7404789,13.6031252 60.8823008,13.7194191 61.001433,13.8470608 C61.1205652,13.9747024 61.2141677,14.1151061 61.2822432,14.2682761 C61.3503187,14.421446 61.384356,14.6001417 61.384356,14.8043683 C61.384356,14.9688842 61.3645009,15.1333976 61.3247902,15.2979135 C61.2567147,15.5985804 61.1503482,15.8510235 61.0056877,16.0552501 C60.8610272,16.2594767 60.6908409,16.4225719 60.4951237,16.5445406 C60.2994065,16.6665092 60.0852554,16.7544388 59.852664,16.808332 C59.6200726,16.8622251 59.3818118,16.8891713 59.1378744,16.8891713 C58.7804778,16.8891713 58.4429417,16.8480429 58.1252558,16.765785 C57.8075699,16.683527 57.5239261,16.5913428 57.2743158,16.4892295 L57.4445038,15.6127613 Z M61.9047576,16.7955679 L63.104583,10.5837059 L66.6615122,10.5837059 L66.4572866,11.6218527 L64.0916734,11.6218527 L63.8108632,13.0939789 L65.9297038,13.0939789 L65.7254782,14.1321257 L63.6066376,14.1321257 L63.2917898,15.7574211 L65.7595158,15.7574211 L65.5637996,16.7955679 L61.9047576,16.7955679 Z" id="CARBAPENEMASE" fill="#1EA69E" sketch:type="MSShapeGroup"></path>
            <path d="M0.638158,27.0076988 L0.638158,20.7958368 L1.8805304,20.7958368 L1.8805304,27.0076988 L0.638158,27.0076988 Z M2.9455336,25.8759486 C3.17812503,25.9099864 3.44616845,25.9411872 3.7496719,25.969552 C4.05317535,25.9979168 4.3382374,26.012099 4.6048666,26.012099 C4.78640137,26.012099 4.94666014,26.0035897 5.0856477,25.9865708 C5.22463526,25.9695519 5.33951101,25.9326782 5.4302784,25.8759486 C5.52104579,25.819219 5.58912031,25.7412169 5.634504,25.6419401 C5.67988769,25.5426633 5.7025792,25.4079325 5.7025792,25.2377436 C5.7025792,25.1015925 5.68556057,24.988135 5.6515228,24.8973676 C5.61748503,24.8066002 5.56075626,24.7314346 5.4813348,24.6718685 C5.40191334,24.6123024 5.29980156,24.5626647 5.1749964,24.522954 C5.05019124,24.4832433 4.89418714,24.4406967 4.7069794,24.395313 L4.485735,24.3442566 C4.22477876,24.287527 3.99219082,24.2151978 3.7879642,24.1272669 C3.58373758,24.039336 3.40929662,23.9258785 3.2646361,23.7868909 C3.11997558,23.6479034 3.00935448,23.4791353 2.9327695,23.2805816 C2.85618452,23.082028 2.8178926,22.8380943 2.8178926,22.5487732 C2.8178926,21.9417663 2.99375177,21.4822633 3.3454754,21.1702504 C3.69719903,20.8582375 4.24179518,20.7022334 4.9792802,20.7022334 C5.26860125,20.7022334 5.56217261,20.732016 5.8600031,20.7915821 C6.15783359,20.8511482 6.42304057,20.9206409 6.655632,21.0000624 L6.655632,21.8765306 C6.45707834,21.8538388 6.21881752,21.8311473 5.9408424,21.8084554 C5.66286728,21.7857636 5.39340564,21.7744178 5.1324494,21.7744178 C4.95658759,21.7744178 4.8020017,21.7815089 4.6686871,21.7956913 C4.5353725,21.8098737 4.42191497,21.8424928 4.3283111,21.8935494 C4.23470723,21.9446061 4.16379627,22.0169352 4.1155761,22.1105391 C4.06735593,22.204143 4.0432462,22.327528 4.0432462,22.480698 C4.0432462,22.7303083 4.12266647,22.9118404 4.2815094,23.0252996 C4.44035233,23.1387588 4.68428602,23.2295249 5.0133178,23.2976004 L5.2175434,23.3401474 C5.52388333,23.40255 5.78625387,23.4819703 6.0046629,23.5784106 C6.22307193,23.674851 6.40176754,23.7939814 6.5407551,23.9358054 C6.67974266,24.0776295 6.78185444,24.249234 6.8470935,24.4506241 C6.91233256,24.6520143 6.9449516,24.8888569 6.9449516,25.161159 C6.9449516,25.5128826 6.89531393,25.8121269 6.7960371,26.0589007 C6.69676027,26.3056745 6.55352014,26.5056434 6.3663124,26.6588134 C6.17910466,26.8119834 5.95077138,26.9240227 5.6813057,26.9949347 C5.41184002,27.0658467 5.1069229,27.1013022 4.7665452,27.1013022 C4.57933746,27.1013022 4.39496897,27.0899565 4.2134342,27.0672646 C4.03189943,27.0445728 3.86171313,27.0147902 3.7028702,26.9779159 C3.54402727,26.9410417 3.39936892,26.9027497 3.2688908,26.863039 C3.13841268,26.8233283 3.03062803,26.7864546 2.9455336,26.7524168 L2.9455336,25.8759486 Z M9.6450878,27.0076988 L9.6450878,20.7958368 L13.1935076,20.7958368 L13.1935076,21.8339836 L10.8534226,21.8339836 L10.8534226,23.416732 L12.9297162,23.416732 L12.9297162,24.4548788 L10.8534226,24.4548788 L10.8534226,27.0076988 L9.6450878,27.0076988 Z M15.2030542,26.8970766 C14.8796954,26.7609255 14.6173248,26.5595384 14.4159347,26.2929092 C14.2145446,26.02628 14.068468,25.695835 13.9777006,25.3015641 C13.8869332,24.9072933 13.8415502,24.4492085 13.8415502,23.927296 C13.8415502,23.3997106 13.8883514,22.9345347 13.9819553,22.5317544 C14.0755592,22.1289741 14.2258904,21.791438 14.4329535,21.5191358 C14.6400166,21.2468337 14.9066418,21.0426101 15.2328371,20.906459 C15.5590324,20.7703079 15.9547155,20.7022334 16.4198984,20.7022334 C16.8907542,20.7022334 17.2878556,20.7703079 17.6112144,20.906459 C17.9345732,21.0426101 18.1969438,21.2439972 18.3983339,21.5106264 C18.599724,21.7772556 18.7458006,22.1077007 18.836568,22.5019715 C18.9273354,22.8962424 18.9727184,23.3543271 18.9727184,23.8762396 C18.9727184,24.4038251 18.9259172,24.8690009 18.8323133,25.2717812 C18.7387094,25.6745615 18.5883782,26.0120977 18.3813151,26.2843998 C18.174252,26.556702 17.9076268,26.7609255 17.5814315,26.8970766 C17.2552362,27.0332277 16.8595531,27.1013022 16.3943702,27.1013022 C15.9235144,27.1013022 15.526413,27.0332277 15.2030542,26.8970766 L15.2030542,26.8970766 Z M15.4157892,25.6036478 C15.5235755,25.7681637 15.6597245,25.8858759 15.8242404,25.9567879 C15.9887563,26.0276999 16.1816341,26.0631554 16.4028796,26.0631554 C16.6241251,26.0631554 16.8170029,26.0276999 16.9815188,25.9567879 C17.1460347,25.8858759 17.2821837,25.7667455 17.38997,25.5993931 C17.4977563,25.4320407 17.5771765,25.2107986 17.6282332,24.9356599 C17.6792899,24.6605213 17.7048178,24.315894 17.7048178,23.9017678 C17.7048178,23.4876416 17.6792899,23.1430144 17.6282332,22.8678757 C17.5771765,22.5927371 17.4991745,22.3714949 17.3942247,22.2041425 C17.2892749,22.0367901 17.1545441,21.9176597 16.9900282,21.8467477 C16.8255123,21.7758357 16.6326345,21.7403802 16.411389,21.7403802 C16.1901435,21.7403802 15.9972657,21.7758357 15.8327498,21.8467477 C15.6682339,21.9176597 15.5320849,22.0367901 15.4242986,22.2041425 C15.3165123,22.3714949 15.2370921,22.5927371 15.1860354,22.8678757 C15.1349787,23.1430144 15.1094508,23.4876416 15.1094508,23.9017678 C15.1094508,24.315894 15.1349787,24.6605213 15.1860354,24.9356599 C15.2370921,25.2107986 15.3136759,25.433459 15.4157892,25.6036478 L15.4157892,25.6036478 Z M21.2120188,24.0889746 C21.2120188,24.5087738 21.2290374,24.8463099 21.2630752,25.1015932 C21.297113,25.3568765 21.35526,25.5568454 21.4375179,25.7015059 C21.5197758,25.8461664 21.6289787,25.9426053 21.7651298,25.9908255 C21.9012809,26.0390457 22.0714672,26.0631554 22.2756938,26.0631554 C22.4799204,26.0631554 22.6515249,26.0390457 22.7905125,25.9908255 C22.9295001,25.9426053 23.0429576,25.8475847 23.1308885,25.7057606 C23.2188194,25.5639366 23.281221,25.3639677 23.3180953,25.1058479 C23.3549696,24.8477282 23.3734064,24.5116102 23.3734064,24.097484 L23.3734064,20.7958368 L24.6157788,20.7958368 L24.6157788,24.0719558 C24.6157788,24.5995413 24.5774869,25.0533714 24.5009019,25.4334598 C24.4243169,25.8135482 24.2938408,26.1269747 24.1094695,26.3737485 C23.9250982,26.6205223 23.6797463,26.8034726 23.3734064,26.9226048 C23.0670665,27.041737 22.6841473,27.1013022 22.2246374,27.1013022 C21.7651275,27.1013022 21.3878812,27.0431552 21.0928872,26.9268595 C20.7978932,26.8105638 20.5681417,26.63045 20.4036258,26.3865126 C20.2391099,26.1425753 20.1256524,25.8319853 20.0632498,25.4547333 C20.0008472,25.0774814 19.9696464,24.6307423 19.9696464,24.1145028 L19.9696464,20.7958368 L21.2120188,20.7958368 L21.2120188,24.0889746 Z M25.7828948,27.0076988 L25.7828948,20.7958368 L26.914645,20.7958368 L29.2887676,24.8888582 L29.2887676,20.7958368 L30.4630648,20.7958368 L30.4630648,27.0076988 L29.3228052,27.0076988 L26.957192,22.9316962 L26.957192,27.0076988 L25.7828948,27.0076988 Z M32.8214968,25.9355144 L33.6043616,25.9355144 C33.8539719,25.9355144 34.0723777,25.90715 34.2595854,25.8504204 C34.4467931,25.7936908 34.601379,25.6901608 34.7233477,25.5398273 C34.8453164,25.3894938 34.9375006,25.1824338 34.9999032,24.9186411 C35.0623058,24.6548484 35.0935066,24.3130576 35.0935066,23.8932584 C35.0935066,23.4791322 35.063724,23.1401778 35.0041579,22.8763851 C34.9445918,22.6125924 34.8538258,22.4069506 34.7318571,22.2594536 C34.6098884,22.1119566 34.4567208,22.0098448 34.2723495,21.9531152 C34.0879782,21.8963856 33.8709907,21.8680212 33.6213804,21.8680212 L32.8214968,21.8680212 L32.8214968,25.9355144 Z M31.6301808,27.0076988 L31.6301808,20.7958368 L33.7149838,20.7958368 C34.1858396,20.7958368 34.5886139,20.8568202 34.9233186,20.9787889 C35.2580233,21.1007576 35.5317396,21.2879625 35.7444757,21.5404093 C35.9572118,21.7928561 36.1132159,22.1105372 36.2124927,22.4934621 C36.3117695,22.876387 36.3614072,23.3316354 36.3614072,23.8592208 C36.3614072,24.9314106 36.1515108,25.7241951 35.7317116,26.2375981 C35.3119124,26.7510011 34.6283308,27.0076988 33.6809462,27.0076988 L31.6301808,27.0076988 Z M39.1211092,27.0076988 L39.1211092,20.7958368 L40.3634816,20.7958368 L40.3634816,27.0076988 L39.1211092,27.0076988 Z M41.5305976,27.0076988 L41.5305976,20.7958368 L42.6623478,20.7958368 L45.0364704,24.8888582 L45.0364704,20.7958368 L46.2107676,20.7958368 L46.2107676,27.0076988 L45.070508,27.0076988 L42.7048948,22.9316962 L42.7048948,27.0076988 L41.5305976,27.0076988 Z M49.1406576,27.0076988 L49.1406576,20.7958368 L50.3575018,20.7958368 L50.3575018,23.3231286 L50.8085,23.3231286 C50.9673429,23.3231286 51.0935644,23.2947642 51.1871683,23.2380346 C51.2807722,23.181305 51.3587742,23.090539 51.4211768,22.9657338 L52.4508142,20.7958368 L53.701696,20.7958368 L52.3742296,23.4507696 C52.3175,23.5585559 52.2550983,23.6521583 52.1870228,23.7315798 L53.1230568,25.7312888 C53.2024783,25.9014777 53.284735,26.0220263 53.3698294,26.0929383 C53.4549238,26.1638503 53.5712178,26.1993058 53.7187148,26.1993058 L53.8889028,26.1993058 L53.8889028,27.0076988 C53.7016951,27.0417366 53.5088173,27.0587552 53.3102636,27.0587552 C53.1400747,27.0587552 52.9911617,27.044573 52.8635201,27.0162082 C52.7358785,26.9878434 52.6238391,26.9438786 52.5273988,26.8843125 C52.4309585,26.8247464 52.3472835,26.7481626 52.2763715,26.6545587 C52.2054595,26.5609548 52.1388032,26.4489155 52.0764006,26.3184374 L51.148876,24.3442566 C51.0467627,24.3612755 50.9446509,24.3697848 50.8425376,24.3697848 L50.3575018,24.3697848 L50.3575018,27.0076988 L49.1406576,27.0076988 Z M55.975034,23.6890328 L56.6217484,23.6890328 C56.7976102,23.6890328 56.9479414,23.6748506 57.0727466,23.6464858 C57.1975518,23.618121 57.3010818,23.5684833 57.3833397,23.4975713 C57.4655976,23.4266593 57.5265811,23.3288022 57.5662918,23.203997 C57.6060025,23.0791919 57.6258576,22.9231877 57.6258576,22.73598 C57.6258576,22.3672375 57.5478555,22.1176309 57.3918491,21.9871528 C57.2358427,21.8566747 56.979145,21.7914366 56.6217484,21.7914366 L55.975034,21.7914366 L55.975034,23.6890328 Z M54.7326616,27.0076988 L54.7326616,20.7958368 L56.7068424,20.7958368 C57.4670193,20.7958368 58.0187065,20.9560956 58.3619207,21.2766179 C58.7051349,21.5971402 58.8767394,22.0750801 58.8767394,22.7104518 C58.8767394,23.3344776 58.7079713,23.8195085 58.3704301,24.1655592 C58.0328889,24.5116099 57.4783652,24.6846326 56.7068424,24.6846326 L55.975034,24.6846326 L55.975034,27.0076988 L54.7326616,27.0076988 Z M63.7539538,26.820492 C63.5383813,26.8999135 63.3015387,26.9665698 63.0434189,27.0204629 C62.7852991,27.074356 62.4945642,27.1013022 62.1712054,27.1013022 C61.6833307,27.1013022 61.2763018,27.0332277 60.9501065,26.8970766 C60.6239112,26.7609255 60.3615407,26.5609566 60.162987,26.2971639 C59.9644333,26.0333712 59.8240296,25.7057626 59.7417717,25.3143282 C59.6595138,24.9228939 59.6183854,24.4719002 59.6183854,23.9613336 C59.6183854,23.4224023 59.6637684,22.9487171 59.7545358,22.5402638 C59.8453032,22.1318106 59.9899615,21.791438 60.1885152,21.5191358 C60.3870689,21.2468337 60.6480212,21.0426101 60.97138,20.906459 C61.2947388,20.7703079 61.6861673,20.7022334 62.1456772,20.7022334 C62.4520171,20.7022334 62.7342427,20.7291796 62.9923625,20.7830727 C63.2504823,20.8369658 63.4873249,20.9036221 63.7028974,20.9830436 L63.7028974,21.8510024 C63.5156897,21.8283106 63.2987021,21.8056191 63.0519283,21.7829272 C62.8051545,21.7602354 62.5796576,21.7488896 62.375431,21.7488896 C62.0974559,21.7488896 61.8634497,21.7815087 61.6734055,21.8467477 C61.4833613,21.9119868 61.3287754,22.0254443 61.2096432,22.1871237 C61.090511,22.3488031 61.0054179,22.5672089 60.9543612,22.8423475 C60.9033045,23.1174862 60.8777766,23.4677863 60.8777766,23.8932584 C60.8777766,24.3187305 60.9047228,24.6718671 60.9586159,24.9526787 C61.012509,25.2334903 61.1004386,25.4547325 61.2224073,25.6164119 C61.344376,25.7780913 61.5046347,25.8915489 61.7031884,25.9567879 C61.9017421,26.022027 62.1456758,26.054646 62.4349968,26.054646 C62.6619153,26.054646 62.8973396,26.041882 63.141277,26.0163537 C63.3852144,25.9908254 63.5894379,25.9695521 63.7539538,25.9525332 L63.7539538,26.820492 Z" id="IS-FOUND-IN-KPC-" fill="#1EA69E" sketch:type="MSShapeGroup"></path>
            <path d="M0.1786504,37.2189788 L2.084756,31.0071168 L3.573901,31.0071168 L5.488516,37.2189788 L4.1525402,37.2189788 L3.7525984,35.7808902 L1.8209646,35.7808902 L1.4295322,37.2189788 L0.1786504,37.2189788 Z M2.0932654,34.7682716 L3.5228446,34.7682716 L2.7995456,32.1303576 L2.0932654,34.7682716 Z M6.1961244,37.2189788 L6.1961244,31.0071168 L7.3278746,31.0071168 L9.7019972,35.1001382 L9.7019972,31.0071168 L10.8762944,31.0071168 L10.8762944,37.2189788 L9.7360348,37.2189788 L7.3704216,33.1429762 L7.3704216,37.2189788 L6.1961244,37.2189788 Z M13.2347264,36.1467944 L14.0175912,36.1467944 C14.2672015,36.1467944 14.4856073,36.11843 14.672815,36.0617004 C14.8600227,36.0049708 15.0146086,35.9014408 15.1365773,35.7511073 C15.258546,35.6007738 15.3507302,35.3937138 15.4131328,35.1299211 C15.4755354,34.8661284 15.5067362,34.5243376 15.5067362,34.1045384 C15.5067362,33.6904122 15.4769536,33.3514578 15.4173875,33.0876651 C15.3578214,32.8238724 15.2670554,32.6182306 15.1450867,32.4707336 C15.023118,32.3232366 14.8699504,32.2211248 14.6855791,32.1643952 C14.5012078,32.1076656 14.2842203,32.0793012 14.03461,32.0793012 L13.2347264,32.0793012 L13.2347264,36.1467944 Z M12.0434104,37.2189788 L12.0434104,31.0071168 L14.1282134,31.0071168 C14.5990692,31.0071168 15.0018435,31.0681002 15.3365482,31.1900689 C15.6712529,31.3120376 15.9449692,31.4992425 16.1577053,31.7516893 C16.3704414,32.0041361 16.5264455,32.3218172 16.6257223,32.7047421 C16.7249991,33.087667 16.7746368,33.5429154 16.7746368,34.0705008 C16.7746368,35.1426906 16.5647404,35.9354751 16.1449412,36.4488781 C15.725142,36.9622811 15.0415604,37.2189788 14.0941758,37.2189788 L12.0434104,37.2189788 Z M20.7256548,37.1083566 C20.402296,36.9722055 20.1399254,36.7708184 19.9385353,36.5041892 C19.7371452,36.23756 19.5910686,35.907115 19.5003012,35.5128441 C19.4095338,35.1185733 19.3641508,34.6604885 19.3641508,34.138576 C19.3641508,33.6109906 19.410952,33.1458147 19.5045559,32.7430344 C19.5981598,32.3402541 19.748491,32.002718 19.9555541,31.7304158 C20.1626172,31.4581137 20.4292424,31.2538901 20.7554377,31.117739 C21.081633,30.9815879 21.4773161,30.9135134 21.942499,30.9135134 C22.4133548,30.9135134 22.8104562,30.9815879 23.133815,31.117739 C23.4571738,31.2538901 23.7195444,31.4552772 23.9209345,31.7219064 C24.1223246,31.9885356 24.2684012,32.3189807 24.3591686,32.7132515 C24.449936,33.1075224 24.495319,33.5656071 24.495319,34.0875196 C24.495319,34.6151051 24.4485178,35.0802809 24.3549139,35.4830612 C24.26131,35.8858415 24.1109788,36.2233777 23.9039157,36.4956798 C23.6968526,36.767982 23.4302274,36.9722055 23.1040321,37.1083566 C22.7778368,37.2445077 22.3821537,37.3125822 21.9169708,37.3125822 C21.446115,37.3125822 21.0490136,37.2445077 20.7256548,37.1083566 L20.7256548,37.1083566 Z M20.9383898,35.8149278 C21.0461761,35.9794437 21.1823251,36.0971559 21.346841,36.1680679 C21.5113569,36.2389799 21.7042347,36.2744354 21.9254802,36.2744354 C22.1467257,36.2744354 22.3396035,36.2389799 22.5041194,36.1680679 C22.6686353,36.0971559 22.8047843,35.9780255 22.9125706,35.8106731 C23.0203569,35.6433207 23.0997771,35.4220786 23.1508338,35.1469399 C23.2018905,34.8718013 23.2274184,34.527174 23.2274184,34.1130478 C23.2274184,33.6989216 23.2018905,33.3542944 23.1508338,33.0791557 C23.0997771,32.8040171 23.0217751,32.5827749 22.9168253,32.4154225 C22.8118755,32.2480701 22.6771447,32.1289397 22.5126288,32.0580277 C22.3481129,31.9871157 22.1552351,31.9516602 21.9339896,31.9516602 C21.7127441,31.9516602 21.5198663,31.9871157 21.3553504,32.0580277 C21.1908345,32.1289397 21.0546855,32.2480701 20.9468992,32.4154225 C20.8391129,32.5827749 20.7596927,32.8040171 20.708636,33.0791557 C20.6575793,33.3542944 20.6320514,33.6989216 20.6320514,34.1130478 C20.6320514,34.527174 20.6575793,34.8718013 20.708636,35.1469399 C20.7596927,35.4220786 20.8362765,35.644739 20.9383898,35.8149278 L20.9383898,35.8149278 Z M26.470828,37.2189788 L26.470828,32.0707918 L24.768948,32.0707918 L24.768948,31.0071168 L29.4235898,31.0071168 L29.4235898,32.0707918 L27.7132004,32.0707918 L27.7132004,37.2189788 L26.470828,37.2189788 Z M30.2503298,37.2189788 L30.2503298,31.0071168 L31.4927022,31.0071168 L31.4927022,33.4663334 L33.6711086,33.4663334 L33.6711086,31.0071168 L34.913481,31.0071168 L34.913481,37.2189788 L33.6711086,37.2189788 L33.6711086,34.5300084 L31.4927022,34.5300084 L31.4927022,37.2189788 L30.2503298,37.2189788 Z M36.080597,37.2189788 L36.080597,31.0071168 L39.7481484,31.0071168 L39.7481484,32.0452636 L37.2804224,32.0452636 L37.2804224,33.5173898 L39.4928664,33.5173898 L39.4928664,34.5555366 L37.2804224,34.5555366 L37.2804224,36.180832 L39.8587706,36.180832 L39.8587706,37.2189788 L36.080597,37.2189788 Z M41.97043,33.8492564 L42.7192572,33.8492564 C42.8894461,33.8492564 43.0369408,33.8350742 43.161746,33.8067094 C43.2865512,33.7783446 43.3914994,33.7287069 43.4765938,33.6577949 C43.5616882,33.5868829 43.6240899,33.4918622 43.6638006,33.37273 C43.7035113,33.2535978 43.7233664,33.1032666 43.7233664,32.9217318 C43.7233664,32.5700082 43.6439461,32.3289109 43.4851032,32.1984328 C43.3262603,32.0679547 43.0709808,32.0027166 42.7192572,32.0027166 L41.97043,32.0027166 L41.97043,33.8492564 Z M40.7706046,37.2189788 L40.7706046,31.0071168 L42.7192572,31.0071168 C43.485107,31.0071168 44.0495583,31.1687938 44.4126278,31.4921526 C44.7756973,31.8155114 44.9572294,32.2778509 44.9572294,32.8791848 C44.9572294,33.2592732 44.8792273,33.5996458 44.7232209,33.9003128 C44.5672145,34.2009798 44.3020075,34.4335677 43.927592,34.5980836 L44.438156,35.9595876 C44.4892127,36.0957387 44.5516143,36.2049416 44.6253628,36.2871995 C44.6991113,36.3694575 44.8295875,36.4105858 45.0167952,36.4105858 L45.1784738,36.4105858 L45.1784738,37.2189788 C45.0820335,37.2359977 44.9855945,37.2487617 44.8891542,37.2572711 C44.7927139,37.2657806 44.7019478,37.2700352 44.6168534,37.2700352 C44.4296457,37.2700352 44.2693869,37.2501801 44.1360723,37.2104694 C44.0027577,37.1707587 43.8893002,37.1140299 43.7956963,37.0402814 C43.7020924,36.9665329 43.6240904,36.8771851 43.5616878,36.7722353 C43.4992852,36.6672855 43.4425565,36.5467369 43.3914998,36.4105858 L42.8128606,34.819328 L41.97043,34.819328 L41.97043,37.2189788 L40.7706046,37.2189788 Z M47.7679878,37.2189788 L47.7679878,31.0071168 L49.9889412,31.0071168 C50.6640236,31.0071168 51.1533092,31.1432659 51.4568127,31.415568 C51.7603162,31.6878702 51.9120656,32.0792987 51.9120656,32.5898652 C51.9120656,32.9472618 51.849664,33.2337421 51.7248588,33.4493146 C51.6000536,33.6648872 51.4128487,33.8379099 51.1632384,33.968388 C51.4809243,34.0931932 51.7106758,34.2818163 51.8524998,34.5342631 C51.9943238,34.7867099 52.0652348,35.1001363 52.0652348,35.4745518 C52.0652348,35.741181 52.0283611,35.98086 51.9546126,36.1935961 C51.8808641,36.4063322 51.7588973,36.5892824 51.5887084,36.7424524 C51.4185195,36.8956224 51.1930227,37.0133346 50.9122111,37.0955925 C50.6313995,37.1778505 50.2839358,37.2189788 49.8698096,37.2189788 L47.7679878,37.2189788 Z M48.9252662,36.2318884 L49.835772,36.2318884 C49.988942,36.2318884 50.1279274,36.2205427 50.2527326,36.1978508 C50.3775378,36.175159 50.4839042,36.1311942 50.5718351,36.0659551 C50.659766,36.0007161 50.7278405,35.9127865 50.7760607,35.8021637 C50.8242809,35.691541 50.8483906,35.5454644 50.8483906,35.3639296 C50.8483906,35.1880678 50.8271173,35.0434094 50.7845701,34.9299502 C50.7420229,34.816491 50.678203,34.7285614 50.5931086,34.6661588 C50.5080142,34.6037562 50.4044842,34.5612097 50.2825155,34.5385178 C50.1605468,34.515826 50.0201431,34.5044802 49.8613002,34.5044802 L48.9252662,34.5044802 L48.9252662,36.2318884 Z M48.9252662,33.5599368 L49.7847156,33.5599368 C49.9322126,33.5599368 50.0612705,33.5500093 50.1718933,33.5301539 C50.2825161,33.5102985 50.3761185,33.4734248 50.4527035,33.4195317 C50.5292885,33.3656386 50.5874355,33.2876365 50.6271462,33.1855232 C50.6668569,33.0834099 50.686712,32.9472609 50.686712,32.777072 C50.686712,32.6068832 50.6654387,32.4721523 50.6228915,32.3728755 C50.5803443,32.2735987 50.5179426,32.1955966 50.4356847,32.138867 C50.3534268,32.0821374 50.2541514,32.0452637 50.1378557,32.0282448 C50.02156,32.0112259 49.8896656,32.0027166 49.7421686,32.0027166 L48.9252662,32.0027166 L48.9252662,33.5599368 Z M52.4154484,37.2189788 L54.321554,31.0071168 L55.810699,31.0071168 L57.725314,37.2189788 L56.3893382,37.2189788 L55.9893964,35.7808902 L54.0577626,35.7808902 L53.6663302,37.2189788 L52.4154484,37.2189788 Z M54.3300634,34.7682716 L55.7596426,34.7682716 L55.0363436,32.1303576 L54.3300634,34.7682716 Z M62.1004738,37.031772 C61.8849013,37.1111935 61.6480587,37.1778498 61.3899389,37.2317429 C61.1318191,37.285636 60.8410842,37.3125822 60.5177254,37.3125822 C60.0298507,37.3125822 59.6228218,37.2445077 59.2966265,37.1083566 C58.9704312,36.9722055 58.7080607,36.7722366 58.509507,36.5084439 C58.3109533,36.2446512 58.1705496,35.9170426 58.0882917,35.5256082 C58.0060338,35.1341739 57.9649054,34.6831802 57.9649054,34.1726136 C57.9649054,33.6336823 58.0102884,33.1599971 58.1010558,32.7515438 C58.1918232,32.3430906 58.3364815,32.002718 58.5350352,31.7304158 C58.7335889,31.4581137 58.9945412,31.2538901 59.3179,31.117739 C59.6412588,30.9815879 60.0326873,30.9135134 60.4921972,30.9135134 C60.7985371,30.9135134 61.0807627,30.9404596 61.3388825,30.9943527 C61.5970023,31.0482458 61.8338449,31.1149021 62.0494174,31.1943236 L62.0494174,32.0622824 C61.8622097,32.0395906 61.6452221,32.0168991 61.3984483,31.9942072 C61.1516745,31.9715154 60.9261776,31.9601696 60.721951,31.9601696 C60.4439759,31.9601696 60.2099697,31.9927887 60.0199255,32.0580277 C59.8298813,32.1232668 59.6752954,32.2367243 59.5561632,32.3984037 C59.437031,32.5600831 59.3519379,32.7784889 59.3008812,33.0536275 C59.2498245,33.3287662 59.2242966,33.6790663 59.2242966,34.1045384 C59.2242966,34.5300105 59.2512428,34.8831471 59.3051359,35.1639587 C59.359029,35.4447703 59.4469586,35.6660125 59.5689273,35.8276919 C59.690896,35.9893713 59.8511547,36.1028289 60.0497084,36.1680679 C60.2482621,36.233307 60.4921958,36.265926 60.7815168,36.265926 C61.0084353,36.265926 61.2438596,36.253162 61.487797,36.2276337 C61.7317344,36.2021054 61.9359579,36.1808321 62.1004738,36.1638132 L62.1004738,37.031772 Z M64.4929434,37.2189788 L64.4929434,32.0707918 L62.7910634,32.0707918 L62.7910634,31.0071168 L67.4457052,31.0071168 L67.4457052,32.0707918 L65.7353158,32.0707918 L65.7353158,37.2189788 L64.4929434,37.2189788 Z M68.2724452,37.2189788 L68.2724452,31.0071168 L71.9399966,31.0071168 L71.9399966,32.0452636 L69.4722706,32.0452636 L69.4722706,33.5173898 L71.6847146,33.5173898 L71.6847146,34.5555366 L69.4722706,34.5555366 L69.4722706,36.180832 L72.0506188,36.180832 L72.0506188,37.2189788 L68.2724452,37.2189788 Z M74.1622782,33.8492564 L74.9111054,33.8492564 C75.0812943,33.8492564 75.228789,33.8350742 75.3535942,33.8067094 C75.4783994,33.7783446 75.5833476,33.7287069 75.668442,33.6577949 C75.7535364,33.5868829 75.8159381,33.4918622 75.8556488,33.37273 C75.8953595,33.2535978 75.9152146,33.1032666 75.9152146,32.9217318 C75.9152146,32.5700082 75.8357943,32.3289109 75.6769514,32.1984328 C75.5181085,32.0679547 75.262829,32.0027166 74.9111054,32.0027166 L74.1622782,32.0027166 L74.1622782,33.8492564 Z M72.9624528,37.2189788 L72.9624528,31.0071168 L74.9111054,31.0071168 C75.6769552,31.0071168 76.2414065,31.1687938 76.604476,31.4921526 C76.9675455,31.8155114 77.1490776,32.2778509 77.1490776,32.8791848 C77.1490776,33.2592732 77.0710755,33.5996458 76.9150691,33.9003128 C76.7590627,34.2009798 76.4938557,34.4335677 76.1194402,34.5980836 L76.6300042,35.9595876 C76.6810609,36.0957387 76.7434625,36.2049416 76.817211,36.2871995 C76.8909595,36.3694575 77.0214357,36.4105858 77.2086434,36.4105858 L77.370322,36.4105858 L77.370322,37.2189788 C77.2738817,37.2359977 77.1774427,37.2487617 77.0810024,37.2572711 C76.9845621,37.2657806 76.893796,37.2700352 76.8087016,37.2700352 C76.6214939,37.2700352 76.4612351,37.2501801 76.3279205,37.2104694 C76.1946059,37.1707587 76.0811484,37.1140299 75.9875445,37.0402814 C75.8939406,36.9665329 75.8159386,36.8771851 75.753536,36.7722353 C75.6911334,36.6672855 75.6344047,36.5467369 75.583348,36.4105858 L75.0047088,34.819328 L74.1622782,34.819328 L74.1622782,37.2189788 L72.9624528,37.2189788 Z M78.197062,37.2189788 L78.197062,31.0071168 L79.4394344,31.0071168 L79.4394344,37.2189788 L78.197062,37.2189788 Z M80.1470428,37.2189788 L82.0531484,31.0071168 L83.5422934,31.0071168 L85.4569084,37.2189788 L84.1209326,37.2189788 L83.7209908,35.7808902 L81.789357,35.7808902 L81.3979246,37.2189788 L80.1470428,37.2189788 Z M82.0616578,34.7682716 L83.491237,34.7682716 L82.767938,32.1303576 L82.0616578,34.7682716 Z" id="AND-OTHER-BACTERIA" fill="#1EA69E" sketch:type="MSShapeGroup"></path>
        </g>
    </g>
</svg>