<?xml version="1.0" encoding="UTF-8" standalone="no"?>
<svg width="69px" height="17px" viewBox="0 0 69 17" version="1.1" xmlns="http://www.w3.org/2000/svg" xmlns:xlink="http://www.w3.org/1999/xlink" xmlns:sketch="http://www.bohemiancoding.com/sketch/ns">
    <!-- Generator: Sketch 3.0.3 (7891) - http://www.bohemiancoding.com/sketch -->
    <title>text-3</title>
    <desc>Created with Sketch.</desc>
    <defs></defs>
    <g id="Page-1" stroke="none" stroke-width="1" fill="none" fill-rule="evenodd" sketch:type="MSPage">
        <g id="text-3" sketch:type="MSLayerGroup">
            <path d="M0.2253854,5.29365987 C0.316152787,5.31067876 0.418264566,5.32486095 0.5317238,5.33620687 C0.645183034,5.3475528 0.764313443,5.35748033 0.8891186,5.36598977 C1.01392376,5.37449921 1.13730882,5.38159031 1.2592775,5.38726327 C1.38124618,5.39293623 1.49612193,5.39577267 1.6039082,5.39577267 C1.83082667,5.39577267 2.02512269,5.3830087 2.1868021,5.35748037 C2.34848151,5.33195204 2.47753945,5.28515081 2.5739798,5.21707527 C2.67042015,5.14899973 2.74133111,5.05823371 2.7867148,4.94477447 C2.83209849,4.83131524 2.85479,4.68949332 2.85479,4.51930447 C2.85479,4.37180747 2.83777137,4.24416774 2.8037336,4.13638147 C2.76969583,4.0285952 2.70871241,3.93782917 2.6207815,3.86408067 C2.53285059,3.79033217 2.41655662,3.73643984 2.2718961,3.70240207 C2.12723558,3.6683643 1.94428531,3.65134567 1.7230398,3.65134567 L1.067816,3.65134567 L1.067816,2.87699027 L2.5399422,1.18361967 L0.2679324,1.18361967 L0.2679324,0.213548072 L3.8078428,0.213548072 L3.8078428,1.05597867 L2.216585,2.80891507 C2.84628375,2.83727988 3.29727744,2.99186577 3.5695796,3.27267737 C3.84188176,3.55348898 3.9780308,3.97470006 3.9780308,4.53632327 C3.9780308,4.81997136 3.93973888,5.07666902 3.8631539,5.30642397 C3.78656892,5.53617892 3.66460207,5.73189316 3.4972497,5.89357257 C3.32989733,6.05525198 3.1129098,6.18005527 2.8462806,6.26798617 C2.5796514,6.35591708 2.25629743,6.39988187 1.876209,6.39988187 C1.57554203,6.39988187 1.28622532,6.37577215 1.0082502,6.32755197 C0.730275077,6.2793318 0.469322753,6.22118481 0.2253854,6.15310927 L0.2253854,5.29365987 Z M5.3741006,6.35733487 C5.15852806,6.35733487 4.99685107,6.30060611 4.8890648,6.18714687 C4.78127853,6.07368764 4.7273862,5.91484709 4.7273862,5.71062047 C4.7273862,5.50639385 4.78127853,5.34755331 4.8890648,5.23409407 C4.99685107,5.12063484 5.15852806,5.06390607 5.3741006,5.06390607 C5.58967314,5.06390607 5.75135013,5.12063484 5.8591364,5.23409407 C5.96692267,5.34755331 6.020815,5.50639385 6.020815,5.71062047 C6.020815,5.91484709 5.96692267,6.07368764 5.8591364,6.18714687 C5.75135013,6.30060611 5.58967314,6.35733487 5.3741006,6.35733487 L5.3741006,6.35733487 Z" id="3.--" fill="#131514" sketch:type="MSShapeGroup"></path>
            <path d="M9.6963476,6.31478787 L9.6963476,0.102925872 L10.9131918,0.102925872 L10.9131918,2.63021767 L11.36419,2.63021767 C11.5230329,2.63021767 11.6492544,2.60185329 11.7428583,2.54512367 C11.8364622,2.48839406 11.9144642,2.39762803 11.9768668,2.27282287 L13.0065042,0.102925872 L14.257386,0.102925872 L12.9299196,2.75785867 C12.87319,2.86564494 12.8107883,2.95924741 12.7427128,3.03866887 L13.6787468,5.03837787 C13.7581683,5.20856672 13.840425,5.32911535 13.9255194,5.40002737 C14.0106138,5.47093939 14.1269078,5.50639487 14.2744048,5.50639487 L14.4445928,5.50639487 L14.4445928,6.31478787 C14.2573851,6.34882564 14.0645073,6.36584427 13.8659536,6.36584427 C13.6957647,6.36584427 13.5468517,6.35166208 13.4192101,6.32329727 C13.2915685,6.29493246 13.1795291,6.25096767 13.0830888,6.19140157 C12.9866485,6.13183547 12.9029735,6.05525164 12.8320615,5.96164777 C12.7611495,5.8680439 12.6944932,5.75600459 12.6320906,5.62552647 L11.704566,3.65134567 C11.6024527,3.66836456 11.5003409,3.67687387 11.3982276,3.67687387 L10.9131918,3.67687387 L10.9131918,6.31478787 L9.6963476,6.31478787 Z M16.530624,2.99612187 L17.1773384,2.99612187 C17.3532002,2.99612187 17.5035314,2.98193968 17.6283366,2.95357487 C17.7531418,2.92521006 17.8566718,2.87557239 17.9389297,2.80466037 C18.0211876,2.73374835 18.0821711,2.63589123 18.1218818,2.51108607 C18.1615925,2.38628091 18.1814476,2.23027681 18.1814476,2.04306907 C18.1814476,1.67432656 18.1034455,1.42471999 17.9474391,1.29424187 C17.7914327,1.16376375 17.534735,1.09852567 17.1773384,1.09852567 L16.530624,1.09852567 L16.530624,2.99612187 Z M15.2882516,6.31478787 L15.2882516,0.102925872 L17.2624324,0.102925872 C18.0226093,0.102925872 18.5742965,0.263184636 18.9175107,0.583706972 C19.2607249,0.904229308 19.4323294,1.38216916 19.4323294,2.01754087 C19.4323294,2.64156666 19.2635613,3.12659761 18.9260201,3.47264827 C18.5884789,3.81869894 18.0339552,3.99172167 17.2624324,3.99172167 L16.530624,3.99172167 L16.530624,6.31478787 L15.2882516,6.31478787 Z M24.3094438,6.12758107 C24.0938713,6.20700254 23.8570287,6.27365884 23.5989089,6.32755197 C23.3407891,6.38144511 23.0500542,6.40839127 22.7266954,6.40839127 C22.2388207,6.40839127 21.8317918,6.34031675 21.5055965,6.20416567 C21.1794012,6.06801459 20.9170307,5.86804569 20.718477,5.60425297 C20.5199233,5.34046025 20.3795196,5.01285163 20.2972617,4.62141727 C20.2150038,4.22998292 20.1738754,3.77898923 20.1738754,3.26842267 C20.1738754,2.72949131 20.2192584,2.25580611 20.3100258,1.84735287 C20.4007932,1.43889963 20.5454515,1.09852703 20.7440052,0.826224872 C20.9425589,0.553922711 21.2035112,0.349699153 21.52687,0.213548072 C21.8502288,0.0773969916 22.2416573,0.00932247231 22.7011672,0.00932247231 C23.0075071,0.00932247231 23.2897327,0.0362686362 23.5478525,0.0901617723 C23.8059723,0.144054908 24.0428149,0.210711209 24.2583874,0.290132672 L24.2583874,1.15809147 C24.0711797,1.13539963 23.8541921,1.11270812 23.6074183,1.09001627 C23.3606445,1.06732443 23.1351476,1.05597867 22.930921,1.05597867 C22.6529459,1.05597867 22.4189397,1.08859771 22.2288955,1.15383677 C22.0388513,1.21907583 21.8842654,1.33253336 21.7651332,1.49421277 C21.646001,1.65589218 21.5609079,1.87429793 21.5098512,2.14943657 C21.4587945,2.42457521 21.4332666,2.77487534 21.4332666,3.20034747 C21.4332666,3.6258196 21.4602128,3.97895617 21.5141059,4.25976777 C21.567999,4.54057938 21.6559286,4.76182156 21.7778973,4.92350097 C21.899866,5.08518038 22.0601247,5.19863791 22.2586784,5.26387697 C22.4572321,5.32911603 22.7011658,5.36173507 22.9904868,5.36173507 C23.2174053,5.36173507 23.4528296,5.3489711 23.696767,5.32344277 C23.9407044,5.29791444 24.1449279,5.27664116 24.3094438,5.25962227 L24.3094438,6.12758107 Z M28.2177148,2.94506547 L28.966542,2.94506547 C29.1367309,2.94506547 29.2842256,2.93088328 29.4090308,2.90251847 C29.533836,2.87415366 29.6387842,2.82451599 29.7238786,2.75360397 C29.808973,2.68269195 29.8713747,2.58767127 29.9110854,2.46853907 C29.9507961,2.34940688 29.9706512,2.19907565 29.9706512,2.01754087 C29.9706512,1.66581725 29.8912309,1.42471999 29.732388,1.29424187 C29.5735451,1.16376375 29.3182656,1.09852567 28.966542,1.09852567 L28.2177148,1.09852567 L28.2177148,2.94506547 Z M27.0178894,6.31478787 L27.0178894,0.102925872 L28.966542,0.102925872 C29.7323918,0.102925872 30.2968431,0.264602856 30.6599126,0.587961672 C31.0229821,0.911320489 31.2045142,1.37365993 31.2045142,1.97499387 C31.2045142,2.35508231 31.1265121,2.6954549 30.9705057,2.99612187 C30.8144993,3.29678884 30.5492923,3.52937678 30.1748768,3.69389267 L30.6854408,5.05539667 C30.7364975,5.19154775 30.7988991,5.30075063 30.8726476,5.38300857 C30.9463961,5.46526652 31.0768723,5.50639487 31.26408,5.50639487 L31.4257586,5.50639487 L31.4257586,6.31478787 C31.3293183,6.33180676 31.2328793,6.34457073 31.136439,6.35308017 C31.0399987,6.36158961 30.9492326,6.36584427 30.8641382,6.36584427 C30.6769305,6.36584427 30.5166717,6.3459892 30.3833571,6.30627847 C30.2500425,6.26656774 30.136585,6.20983897 30.0429811,6.13609047 C29.9493772,6.06234197 29.8713752,5.97299416 29.8089726,5.86804437 C29.74657,5.76309458 29.6898413,5.64254595 29.6387846,5.50639487 L29.0601454,3.91513707 L28.2177148,3.91513707 L28.2177148,6.31478787 L27.0178894,6.31478787 Z M32.2523986,6.31478787 L32.2523986,0.102925872 L35.91995,0.102925872 L35.91995,1.14107267 L33.452224,1.14107267 L33.452224,2.61319887 L35.664668,2.61319887 L35.664668,3.65134567 L33.452224,3.65134567 L33.452224,5.27664107 L36.0305722,5.27664107 L36.0305722,6.31478787 L32.2523986,6.31478787 Z M36.8401934,5.18303767 C37.0727848,5.21707544 37.3408282,5.24827626 37.6443317,5.27664107 C37.9478352,5.30500588 38.2328972,5.31918807 38.4995264,5.31918807 C38.6810612,5.31918807 38.8413199,5.31067876 38.9803075,5.29365987 C39.1192951,5.27664099 39.2341708,5.23976729 39.3249382,5.18303767 C39.4157056,5.12630806 39.4837801,5.048306 39.5291638,4.94902917 C39.5745475,4.84975234 39.597239,4.71502152 39.597239,4.54483267 C39.597239,4.40868159 39.5802204,4.29522406 39.5461826,4.20445667 C39.5121448,4.11368929 39.4554161,4.03852367 39.3759946,3.97895757 C39.2965731,3.91939147 39.1944614,3.8697538 39.0696562,3.83004307 C38.944851,3.79033234 38.7888469,3.74778577 38.6016392,3.70240207 L38.3803948,3.65134567 C38.1194386,3.59461606 37.8868506,3.52228688 37.682624,3.43435597 C37.4783974,3.34642507 37.3039564,3.23296753 37.1592959,3.09397997 C37.0146354,2.95499241 36.9040143,2.78622433 36.8274293,2.58767067 C36.7508443,2.38911701 36.7125524,2.14518332 36.7125524,1.85586227 C36.7125524,1.24885537 36.8884116,0.789352366 37.2401352,0.477339472 C37.5918588,0.165326579 38.136455,0.00932247231 38.87394,0.00932247231 C39.163261,0.00932247231 39.4568324,0.0391050745 39.7546629,0.0986711723 C40.0524934,0.15823727 40.3177004,0.227730009 40.5502918,0.307151472 L40.5502918,1.18361967 C40.3517381,1.16092783 40.1134773,1.13823632 39.8355022,1.11554447 C39.5575271,1.09285263 39.2880654,1.08150687 39.0271092,1.08150687 C38.8512474,1.08150687 38.6966615,1.08859797 38.5633469,1.10278037 C38.4300323,1.11696278 38.3165748,1.14958182 38.2229709,1.20063847 C38.129367,1.25169513 38.0584561,1.3240243 38.0102359,1.41762817 C37.9620157,1.51123204 37.937906,1.63461711 37.937906,1.78778707 C37.937906,2.03739739 38.0173263,2.21892944 38.1761692,2.33238867 C38.3350121,2.44584791 38.5789458,2.53661393 38.9079776,2.60468947 L39.1122032,2.64723647 C39.4185431,2.70963905 39.6809137,2.78905932 39.8993227,2.88549967 C40.1177317,2.98194002 40.2964273,3.10107043 40.4354149,3.24289447 C40.5744025,3.38471851 40.6765142,3.55632303 40.7417533,3.75771317 C40.8069924,3.95910331 40.8396114,4.19594591 40.8396114,4.46824807 C40.8396114,4.8199717 40.7899737,5.11921594 40.6906969,5.36598977 C40.5914201,5.61276361 40.4481799,5.81273251 40.2609722,5.96590247 C40.0737645,6.11907244 39.8454312,6.23111175 39.5759655,6.30202377 C39.3064998,6.37293579 39.0015827,6.40839127 38.661205,6.40839127 C38.4739973,6.40839127 38.2896288,6.39704552 38.108094,6.37435367 C37.9265592,6.35166183 37.7563729,6.32187922 37.59753,6.28500497 C37.4386871,6.24813072 37.2940287,6.2098388 37.1635506,6.17012807 C37.0330725,6.13041734 36.9252878,6.09354364 36.8401934,6.05950587 L36.8401934,5.18303767 Z M41.7768736,6.31478787 L41.7768736,0.102925872 L43.019246,0.102925872 L43.019246,6.31478787 L41.7768736,6.31478787 Z M44.0841492,5.18303767 C44.3167406,5.21707544 44.584784,5.24827626 44.8882875,5.27664107 C45.191791,5.30500588 45.476853,5.31918807 45.7434822,5.31918807 C45.925017,5.31918807 46.0852757,5.31067876 46.2242633,5.29365987 C46.3632509,5.27664099 46.4781266,5.23976729 46.568894,5.18303767 C46.6596614,5.12630806 46.7277359,5.048306 46.7731196,4.94902917 C46.8185033,4.84975234 46.8411948,4.71502152 46.8411948,4.54483267 C46.8411948,4.40868159 46.8241762,4.29522406 46.7901384,4.20445667 C46.7561006,4.11368929 46.6993719,4.03852367 46.6199504,3.97895757 C46.5405289,3.91939147 46.4384172,3.8697538 46.313612,3.83004307 C46.1888068,3.79033234 46.0328027,3.74778577 45.845595,3.70240207 L45.6243506,3.65134567 C45.3633944,3.59461606 45.1308064,3.52228688 44.9265798,3.43435597 C44.7223532,3.34642507 44.5479122,3.23296753 44.4032517,3.09397997 C44.2585912,2.95499241 44.1479701,2.78622433 44.0713851,2.58767067 C43.9948001,2.38911701 43.9565082,2.14518332 43.9565082,1.85586227 C43.9565082,1.24885537 44.1323674,0.789352366 44.484091,0.477339472 C44.8358146,0.165326579 45.3804108,0.00932247231 46.1178958,0.00932247231 C46.4072168,0.00932247231 46.7007882,0.0391050745 46.9986187,0.0986711723 C47.2964492,0.15823727 47.5616562,0.227730009 47.7942476,0.307151472 L47.7942476,1.18361967 C47.5956939,1.16092783 47.3574331,1.13823632 47.079458,1.11554447 C46.8014829,1.09285263 46.5320212,1.08150687 46.271065,1.08150687 C46.0952032,1.08150687 45.9406173,1.08859797 45.8073027,1.10278037 C45.6739881,1.11696278 45.5605306,1.14958182 45.4669267,1.20063847 C45.3733228,1.25169513 45.3024119,1.3240243 45.2541917,1.41762817 C45.2059715,1.51123204 45.1818618,1.63461711 45.1818618,1.78778707 C45.1818618,2.03739739 45.2612821,2.21892944 45.420125,2.33238867 C45.5789679,2.44584791 45.8229016,2.53661393 46.1519334,2.60468947 L46.356159,2.64723647 C46.6624989,2.70963905 46.9248695,2.78905932 47.1432785,2.88549967 C47.3616875,2.98194002 47.5403831,3.10107043 47.6793707,3.24289447 C47.8183583,3.38471851 47.92047,3.55632303 47.9857091,3.75771317 C48.0509482,3.95910331 48.0835672,4.19594591 48.0835672,4.46824807 C48.0835672,4.8199717 48.0339295,5.11921594 47.9346527,5.36598977 C47.8353759,5.61276361 47.6921357,5.81273251 47.504928,5.96590247 C47.3177203,6.11907244 47.089387,6.23111175 46.8199213,6.30202377 C46.5504556,6.37293579 46.2455385,6.40839127 45.9051608,6.40839127 C45.7179531,6.40839127 45.5335846,6.39704552 45.3520498,6.37435367 C45.170515,6.35166183 45.0003287,6.32187922 44.8414858,6.28500497 C44.6826429,6.24813072 44.5379845,6.2098388 44.4075064,6.17012807 C44.2770283,6.13041734 44.1692436,6.09354364 44.0841492,6.05950587 L44.0841492,5.18303767 Z M50.2121454,6.31478787 L50.2121454,1.16660087 L48.5102654,1.16660087 L48.5102654,0.102925872 L53.1649072,0.102925872 L53.1649072,1.16660087 L51.4545178,1.16660087 L51.4545178,6.31478787 L50.2121454,6.31478787 Z M52.7661936,6.31478787 L54.6722992,0.102925872 L56.1614442,0.102925872 L58.0760592,6.31478787 L56.7400834,6.31478787 L56.3401416,4.87669927 L54.4085078,4.87669927 L54.0170754,6.31478787 L52.7661936,6.31478787 Z M54.6808086,3.86408067 L56.1103878,3.86408067 L55.3870888,1.22616667 L54.6808086,3.86408067 Z M58.7835676,6.31478787 L58.7835676,0.102925872 L59.9153178,0.102925872 L62.2894404,4.19594727 L62.2894404,0.102925872 L63.4637376,0.102925872 L63.4637376,6.31478787 L62.323478,6.31478787 L59.9578648,2.23878527 L59.9578648,6.31478787 L58.7835676,6.31478787 Z M65.9922576,6.31478787 L65.9922576,1.16660087 L64.2903776,1.16660087 L64.2903776,0.102925872 L68.9450194,0.102925872 L68.9450194,1.16660087 L67.23463,1.16660087 L67.23463,6.31478787 L65.9922576,6.31478787 Z" id="KPC-RESISTANT-" fill="#1EA69E" sketch:type="MSShapeGroup"></path>
            <path d="M1.833662,16.5260679 L1.833662,11.3778809 L0.131782,11.3778809 L0.131782,10.3142059 L4.7864238,10.3142059 L4.7864238,11.3778809 L3.0760344,11.3778809 L3.0760344,16.5260679 L1.833662,16.5260679 Z M6.4216568,16.4154457 C6.09829798,16.2792946 5.83592744,16.0779075 5.6345373,15.8112783 C5.43314716,15.5446491 5.28707059,15.214204 5.1963032,14.8199332 C5.10553581,14.4256623 5.0601528,13.9675775 5.0601528,13.4456651 C5.0601528,12.9180796 5.10695403,12.4529038 5.2005579,12.0501235 C5.29416177,11.6473432 5.444493,11.309807 5.6515561,11.0375049 C5.8586192,10.7652027 6.1252444,10.5609792 6.4514397,10.4248281 C6.777635,10.288677 7.17331814,10.2206025 7.638501,10.2206025 C8.10935682,10.2206025 8.50645818,10.288677 8.829817,10.4248281 C9.15317582,10.5609792 9.41554636,10.7623663 9.6169365,11.0289955 C9.81832664,11.2956247 9.96440321,11.6260697 10.0551706,12.0203406 C10.145938,12.4146114 10.191321,12.8726962 10.191321,13.3946087 C10.191321,13.9221941 10.1445198,14.38737 10.0509159,14.7901503 C9.95731203,15.1929306 9.8069808,15.5304667 9.5999177,15.8027689 C9.3928546,16.075071 9.1262294,16.2792946 8.8000341,16.4154457 C8.4738388,16.5515968 8.07815566,16.6196713 7.6129728,16.6196713 C7.14211698,16.6196713 6.74501562,16.5515968 6.4216568,16.4154457 L6.4216568,16.4154457 Z M6.6343918,15.1220169 C6.74217807,15.2865328 6.87832711,15.404245 7.042843,15.475157 C7.20735889,15.546069 7.40023669,15.5815245 7.6214822,15.5815245 C7.84272771,15.5815245 8.03560551,15.546069 8.2001214,15.475157 C8.36463729,15.404245 8.50078633,15.2851145 8.6085726,15.1177622 C8.71635887,14.9504098 8.79577914,14.7291676 8.8468358,14.454029 C8.89789246,14.1788903 8.9234204,13.8342631 8.9234204,13.4201369 C8.9234204,13.0060107 8.89789246,12.6613834 8.8468358,12.3862448 C8.79577914,12.1111061 8.71777709,11.8898639 8.6128273,11.7225116 C8.50787751,11.5551592 8.37314669,11.4360288 8.2086308,11.3651168 C8.04411491,11.2942048 7.85123711,11.2587493 7.6299916,11.2587493 C7.40874609,11.2587493 7.21586829,11.2942048 7.0513524,11.3651168 C6.88683651,11.4360288 6.75068747,11.5551592 6.6429012,11.7225116 C6.53511493,11.8898639 6.45569466,12.1111061 6.404638,12.3862448 C6.35358134,12.6613834 6.3280534,13.0060107 6.3280534,13.4201369 C6.3280534,13.8342631 6.35358134,14.1788903 6.404638,14.454029 C6.45569466,14.7291676 6.53227849,14.951828 6.6343918,15.1220169 L6.6343918,15.1220169 Z M12.951223,16.5260679 L12.951223,10.3142059 L14.014898,10.3142059 L15.674231,13.2159113 L17.3676016,10.3142059 L18.354692,10.3142059 L18.354692,16.5260679 L17.1718854,16.5260679 L17.1718854,12.4670841 L16.0231164,14.4497743 L15.2657798,14.4497743 L14.1340296,12.4670841 L14.1340296,16.5260679 L12.951223,16.5260679 Z M19.521908,16.5260679 L19.521908,10.3142059 L23.1894594,10.3142059 L23.1894594,11.3523527 L20.7217334,11.3523527 L20.7217334,12.8244789 L22.9341774,12.8244789 L22.9341774,13.8626257 L20.7217334,13.8626257 L20.7217334,15.4879211 L23.3000816,15.4879211 L23.3000816,16.5260679 L19.521908,16.5260679 Z M25.4033316,15.4538835 L26.1861964,15.4538835 C26.4358067,15.4538835 26.6542125,15.4255191 26.8414202,15.3687895 C27.0286279,15.3120599 27.1832138,15.2085299 27.3051825,15.0581964 C27.4271512,14.9078629 27.5193354,14.7008029 27.581738,14.4370102 C27.6441406,14.1732175 27.6753414,13.8314266 27.6753414,13.4116275 C27.6753414,12.9975013 27.6455588,12.6585469 27.5859927,12.3947542 C27.5264266,12.1309615 27.4356606,11.9253197 27.3136919,11.7778227 C27.1917232,11.6303257 27.0385556,11.5282139 26.8541843,11.4714843 C26.669813,11.4147547 26.4528255,11.3863903 26.2032152,11.3863903 L25.4033316,11.3863903 L25.4033316,15.4538835 Z M24.2120156,16.5260679 L24.2120156,10.3142059 L26.2968186,10.3142059 C26.7676744,10.3142059 27.1704487,10.3751893 27.5051534,10.497158 C27.8398581,10.6191266 28.1135744,10.8063316 28.3263105,11.0587784 C28.5390466,11.3112252 28.6950507,11.6289063 28.7943275,12.0118312 C28.8936043,12.3947561 28.943242,12.8500044 28.943242,13.3775899 C28.943242,14.4497796 28.7333456,15.2425641 28.3135464,15.7559672 C27.8937472,16.2693702 27.2101656,16.5260679 26.262781,16.5260679 L24.2120156,16.5260679 Z M29.94027,16.5260679 L29.94027,10.3142059 L31.1826424,10.3142059 L31.1826424,16.5260679 L29.94027,16.5260679 Z M36.3152388,16.3388611 C36.0996663,16.4182825 35.8628237,16.4849388 35.6047039,16.538832 C35.3465841,16.5927251 35.0558492,16.6196713 34.7324904,16.6196713 C34.2446157,16.6196713 33.8375868,16.5515968 33.5113915,16.4154457 C33.1851962,16.2792946 32.9228257,16.0793257 32.724272,15.815533 C32.5257183,15.5517403 32.3853146,15.2241316 32.3030567,14.8326973 C32.2207988,14.4412629 32.1796704,13.9902692 32.1796704,13.4797027 C32.1796704,12.9407713 32.2250534,12.4670861 32.3158208,12.0586329 C32.4065882,11.6501796 32.5512465,11.309807 32.7498002,11.0375049 C32.9483539,10.7652027 33.2093062,10.5609792 33.532665,10.4248281 C33.8560238,10.288677 34.2474523,10.2206025 34.7069622,10.2206025 C35.0133021,10.2206025 35.2955277,10.2475486 35.5536475,10.3014418 C35.8117673,10.3553349 36.0486099,10.4219912 36.2641824,10.5014127 L36.2641824,11.3693715 C36.0769747,11.3466796 35.8599871,11.3239881 35.6132133,11.3012963 C35.3664395,11.2786044 35.1409426,11.2672587 34.936716,11.2672587 C34.6587409,11.2672587 34.4247347,11.2998777 34.2346905,11.3651168 C34.0446463,11.4303558 33.8900604,11.5438134 33.7709282,11.7054928 C33.651796,11.8671722 33.5667029,12.0855779 33.5156462,12.3607166 C33.4645895,12.6358552 33.4390616,12.9861553 33.4390616,13.4116275 C33.4390616,13.8370996 33.4660078,14.1902362 33.5199009,14.4710478 C33.573794,14.7518594 33.6617236,14.9731016 33.7836923,15.134781 C33.905661,15.2964604 34.0659197,15.4099179 34.2644734,15.475157 C34.4630271,15.540396 34.7069608,15.5730151 34.9962818,15.5730151 C35.2232003,15.5730151 35.4586246,15.5602511 35.702562,15.5347228 C35.9464994,15.5091944 36.1507229,15.4879212 36.3152388,15.4709023 L36.3152388,16.3388611 Z M36.8867968,16.5260679 L38.7929024,10.3142059 L40.2820474,10.3142059 L42.1966624,16.5260679 L40.8606866,16.5260679 L40.4607448,15.0879793 L38.529111,15.0879793 L38.1376786,16.5260679 L36.8867968,16.5260679 Z M38.8014118,14.0753607 L40.230991,14.0753607 L39.507692,11.4374467 L38.8014118,14.0753607 Z M43.5000288,16.5260679 L43.5000288,11.3778809 L41.7981488,11.3778809 L41.7981488,10.3142059 L46.4527906,10.3142059 L46.4527906,11.3778809 L44.7424012,11.3778809 L44.7424012,16.5260679 L43.5000288,16.5260679 Z M47.2796306,16.5260679 L47.2796306,10.3142059 L48.522003,10.3142059 L48.522003,16.5260679 L47.2796306,16.5260679 Z M50.880535,16.4154457 C50.5571762,16.2792946 50.2948056,16.0779075 50.0934155,15.8112783 C49.8920254,15.5446491 49.7459488,15.214204 49.6551814,14.8199332 C49.564414,14.4256623 49.519031,13.9675775 49.519031,13.4456651 C49.519031,12.9180796 49.5658322,12.4529038 49.6594361,12.0501235 C49.75304,11.6473432 49.9033712,11.309807 50.1104343,11.0375049 C50.3174974,10.7652027 50.5841226,10.5609792 50.9103179,10.4248281 C51.2365132,10.288677 51.6321963,10.2206025 52.0973792,10.2206025 C52.568235,10.2206025 52.9653364,10.288677 53.2886952,10.4248281 C53.612054,10.5609792 53.8744246,10.7623663 54.0758147,11.0289955 C54.2772048,11.2956247 54.4232814,11.6260697 54.5140488,12.0203406 C54.6048162,12.4146114 54.6501992,12.8726962 54.6501992,13.3946087 C54.6501992,13.9221941 54.603398,14.38737 54.5097941,14.7901503 C54.4161902,15.1929306 54.265859,15.5304667 54.0587959,15.8027689 C53.8517328,16.075071 53.5851076,16.2792946 53.2589123,16.4154457 C52.932717,16.5515968 52.5370339,16.6196713 52.071851,16.6196713 C51.6009952,16.6196713 51.2038938,16.5515968 50.880535,16.4154457 L50.880535,16.4154457 Z M51.09327,15.1220169 C51.2010563,15.2865328 51.3372053,15.404245 51.5017212,15.475157 C51.6662371,15.546069 51.8591149,15.5815245 52.0803604,15.5815245 C52.3016059,15.5815245 52.4944837,15.546069 52.6589996,15.475157 C52.8235155,15.404245 52.9596645,15.2851145 53.0674508,15.1177622 C53.1752371,14.9504098 53.2546573,14.7291676 53.305714,14.454029 C53.3567707,14.1788903 53.3822986,13.8342631 53.3822986,13.4201369 C53.3822986,13.0060107 53.3567707,12.6613834 53.305714,12.3862448 C53.2546573,12.1111061 53.1766553,11.8898639 53.0717055,11.7225116 C52.9667557,11.5551592 52.8320249,11.4360288 52.667509,11.3651168 C52.5029931,11.2942048 52.3101153,11.2587493 52.0888698,11.2587493 C51.8676243,11.2587493 51.6747465,11.2942048 51.5102306,11.3651168 C51.3457147,11.4360288 51.2095657,11.5551592 51.1017794,11.7225116 C50.9939931,11.8898639 50.9145729,12.1111061 50.8635162,12.3862448 C50.8124595,12.6613834 50.7869316,13.0060107 50.7869316,13.4201369 C50.7869316,13.8342631 50.8124595,14.1788903 50.8635162,14.454029 C50.9145729,14.7291676 50.9911567,14.951828 51.09327,15.1220169 L51.09327,15.1220169 Z M55.6472272,16.5260679 L55.6472272,10.3142059 L56.7789774,10.3142059 L59.1531,14.4072273 L59.1531,10.3142059 L60.3273972,10.3142059 L60.3273972,16.5260679 L59.1871376,16.5260679 L56.8215244,12.4500653 L56.8215244,16.5260679 L55.6472272,16.5260679 Z M61.3925004,15.3943177 C61.6250918,15.4283554 61.8931352,15.4595563 62.1966387,15.4879211 C62.5001422,15.5162859 62.7852042,15.5304681 63.0518334,15.5304681 C63.2333682,15.5304681 63.3936269,15.5219588 63.5326145,15.5049399 C63.6716021,15.487921 63.7864778,15.4510473 63.8772452,15.3943177 C63.9680126,15.3375881 64.0360871,15.259586 64.0814708,15.1603092 C64.1268545,15.0610323 64.149546,14.9263015 64.149546,14.7561127 C64.149546,14.6199616 64.1325274,14.5065041 64.0984896,14.4157367 C64.0644518,14.3249693 64.0077231,14.2498037 63.9283016,14.1902376 C63.8488801,14.1306715 63.7467684,14.0810338 63.6219632,14.0413231 C63.497158,14.0016123 63.3411539,13.9590658 63.1539462,13.9136821 L62.9327018,13.8626257 C62.6717456,13.8058961 62.4391576,13.7335669 62.234931,13.645636 C62.0307044,13.5577051 61.8562634,13.4442475 61.7116029,13.30526 C61.5669424,13.1662724 61.4563213,12.9975043 61.3797363,12.7989507 C61.3031513,12.600397 61.2648594,12.3564633 61.2648594,12.0671423 C61.2648594,11.4601354 61.4407186,11.0006324 61.7924422,10.6886195 C62.1441658,10.3766066 62.688762,10.2206025 63.426247,10.2206025 C63.715568,10.2206025 64.0091394,10.2503851 64.3069699,10.3099512 C64.6048004,10.3695173 64.8700074,10.43901 65.1025988,10.5184315 L65.1025988,11.3948997 C64.9040451,11.3722078 64.6657843,11.3495163 64.3878092,11.3268245 C64.1098341,11.3041326 63.8403724,11.2927869 63.5794162,11.2927869 C63.4035544,11.2927869 63.2489685,11.299878 63.1156539,11.3140604 C62.9823393,11.3282428 62.8688818,11.3608618 62.7752779,11.4119185 C62.681674,11.4629751 62.6107631,11.5353043 62.5625429,11.6289082 C62.5143227,11.722512 62.490213,11.8458971 62.490213,11.9990671 C62.490213,12.2486774 62.5696333,12.4302094 62.7284762,12.5436687 C62.8873191,12.6571279 63.1312528,12.7478939 63.4602846,12.8159695 L63.6645102,12.8585165 C63.9708501,12.9209191 64.2332207,13.0003393 64.4516297,13.0967797 C64.6700387,13.19322 64.8487343,13.3123504 64.9877219,13.4541745 C65.1267095,13.5959985 65.2288212,13.767603 65.2940603,13.9689932 C65.3592994,14.1703833 65.3919184,14.4072259 65.3919184,14.6795281 C65.3919184,15.0312517 65.3422807,15.3304959 65.2430039,15.5772698 C65.1437271,15.8240436 65.0004869,16.0240125 64.8132792,16.1771825 C64.6260715,16.3303524 64.3977382,16.4423918 64.1282725,16.5133038 C63.8588068,16.5842158 63.5538897,16.6196713 63.213512,16.6196713 C63.0263043,16.6196713 62.8419358,16.6083255 62.660401,16.5856337 C62.4788662,16.5629418 62.3086799,16.5331592 62.149837,16.496285 C61.9909941,16.4594107 61.8463357,16.4211188 61.7158576,16.3814081 C61.5853795,16.3416973 61.4775948,16.3048236 61.3925004,16.2707859 L61.3925004,15.3943177 Z" id="TO-MEDICATIONS" fill="#1EA69E" sketch:type="MSShapeGroup"></path>
        </g>
    </g>
</svg>