<?xml version="1.0" encoding="UTF-8" standalone="no"?>
<svg width="53px" height="27px" viewBox="0 0 53 27" version="1.1" xmlns="http://www.w3.org/2000/svg" xmlns:xlink="http://www.w3.org/1999/xlink" xmlns:sketch="http://www.bohemiancoding.com/sketch/ns">
    <!-- Generator: Sketch 3.0.3 (7891) - http://www.bohemiancoding.com/sketch -->
    <title>text-1</title>
    <desc>Created with Sketch.</desc>
    <defs></defs>
    <g id="Page-1" stroke="none" stroke-width="1" fill="none" fill-rule="evenodd" sketch:type="MSPage">
        <g id="text-1" sketch:type="MSLayerGroup">
            <path d="M1.8461184,6.29818787 L1.8461184,1.28615127 L0.5016332,1.54994267 L0.5016332,0.690493272 L1.5908364,0.333098472 C1.72698748,0.287714779 1.87306405,0.248004643 2.0290705,0.213966872 C2.18507695,0.179929102 2.35100859,0.162910472 2.5268704,0.162910472 L3.028925,0.162910472 L3.028925,6.29818787 L1.8461184,6.29818787 Z M5.3605006,6.34073487 C5.14492806,6.34073487 4.98325107,6.28400611 4.8754648,6.17054687 C4.76767853,6.05708764 4.7137862,5.89824709 4.7137862,5.69402047 C4.7137862,5.48979385 4.76767853,5.33095331 4.8754648,5.21749407 C4.98325107,5.10403484 5.14492806,5.04730607 5.3605006,5.04730607 C5.57607314,5.04730607 5.73775013,5.10403484 5.8455364,5.21749407 C5.95332267,5.33095331 6.007215,5.48979385 6.007215,5.69402047 C6.007215,5.89824709 5.95332267,6.05708764 5.8455364,6.17054687 C5.73775013,6.28400611 5.57607314,6.34073487 5.3605006,6.34073487 L5.3605006,6.34073487 Z" id="1." fill="#131514" sketch:type="MSShapeGroup"></path>
            <path d="M7.666548,6.29818787 L8.8663734,0.0863258723 L10.0661988,0.0863258723 L9.5726536,2.61361767 L10.04918,2.61361767 C10.20235,2.61361767 10.3285715,2.58241685 10.4278483,2.52001427 C10.5271251,2.45761169 10.6249823,2.35266348 10.7214226,2.20516647 L12.091436,0.0863258723 L13.3338084,0.0863258723 L11.5893814,2.69871167 C11.504287,2.82351683 11.4021752,2.94548368 11.283043,3.06461587 L11.8021164,4.93668387 C11.8361542,5.05014311 11.8687732,5.14232735 11.8999745,5.21323937 C11.9311758,5.28415139 11.9737224,5.33946194 12.0276155,5.37917267 C12.0815086,5.4188834 12.1510014,5.44582957 12.2360958,5.46001197 C12.3211902,5.47419438 12.4318113,5.48128547 12.5679624,5.48128547 L12.4233026,6.25564087 C12.2417678,6.31804345 12.0460536,6.34924427 11.836154,6.34924427 C11.5127952,6.34924427 11.2617704,6.27833331 11.0830721,6.13650927 C10.9043738,5.99468523 10.7724794,5.75926085 10.687385,5.43022907 L10.2278774,3.62623627 C10.1654748,3.6375822 10.1059096,3.64609151 10.04918,3.65176447 C9.99245038,3.65743743 9.93855806,3.66027387 9.8875014,3.66027387 L9.368428,3.66027387 L8.857864,6.29818787 L7.666548,6.29818787 Z M13.1225016,6.29818787 L14.322327,0.0863258723 L15.5476806,0.0863258723 L14.5520808,5.23451287 L16.9347128,5.23451287 L16.7304872,6.29818787 L13.1225016,6.29818787 Z M17.5573272,6.29818787 L18.7571526,0.0863258723 L22.3140818,0.0863258723 L22.1098562,1.12447267 L19.744243,1.12447267 L19.4634328,2.59659887 L21.5822734,2.59659887 L21.3780478,3.63474567 L19.2592072,3.63474567 L18.9443594,5.26004107 L21.4120854,5.26004107 L21.2163692,6.29818787 L17.5573272,6.29818787 Z M22.1793596,6.29818787 L23.379185,0.0863258723 L25.4044222,0.0863258723 C25.9206617,0.0863258723 26.323436,0.216802034 26.612757,0.477758272 C26.902078,0.73871451 27.0467364,1.09043286 27.0467364,1.53292387 C27.0467364,1.59532645 27.0439,1.65914631 27.038227,1.72438537 C27.032554,1.78962443 27.0240447,1.85628073 27.0126988,1.92435627 C26.9502962,2.25906101 26.8340023,2.52001334 26.6638134,2.70722107 C26.4936245,2.89442881 26.2865646,3.03625072 26.0426272,3.13269107 C26.2922375,3.24615031 26.4666785,3.41066373 26.5659553,3.62623627 C26.6652321,3.84180882 26.7148698,4.06872388 26.7148698,4.30698827 C26.7148698,4.44881231 26.703524,4.57645204 26.6808322,4.68991127 C26.5730459,5.24586152 26.3177665,5.65289042 25.9149862,5.91101017 C25.5122059,6.16912993 25.0101563,6.29818787 24.4088224,6.29818787 L22.1793596,6.29818787 Z M23.5153354,5.31109747 L24.4598788,5.31109747 C24.732181,5.31109747 24.9576778,5.25436871 25.1363761,5.14090947 C25.3150744,5.02745024 25.435623,4.8175538 25.4980256,4.51121387 C25.5150445,4.42611945 25.5235538,4.34386274 25.5235538,4.26444127 C25.5235538,4.06588761 25.4625704,3.90279241 25.3406017,3.77515077 C25.218633,3.64750913 25.0129912,3.58368927 24.7236702,3.58368927 L23.847202,3.58368927 L23.5153354,5.31109747 Z M24.0344088,2.63914587 L24.9023676,2.63914587 C25.1576509,2.63914587 25.3661291,2.5895082 25.5278085,2.49023137 C25.6894879,2.39095454 25.7958543,2.20516783 25.846911,1.93286567 C25.8639299,1.84777125 25.8724392,1.76551454 25.8724392,1.68609307 C25.8724392,1.28331279 25.6313419,1.08192567 25.1491402,1.08192567 L24.3322378,1.08192567 L24.0344088,2.63914587 Z M27.269409,5.11538127 C27.4793086,5.17211089 27.714733,5.22316678 27.9756892,5.26855047 C28.2366454,5.31393417 28.5202893,5.33662567 28.8266292,5.33662567 C29.1726799,5.33662567 29.4293775,5.29266088 29.5967299,5.20472997 C29.7640823,5.11679907 29.8846309,4.94519455 29.9583794,4.68991127 C29.9867442,4.58779796 30.0009264,4.50270481 30.0009264,4.43462927 C30.0009264,4.24174857 29.9158333,4.08148981 29.7456444,3.95384817 C29.5754555,3.82620653 29.3230125,3.67162065 28.9883078,3.49008587 C28.8351378,3.40499145 28.6833884,3.31564364 28.5330549,3.22203977 C28.3827214,3.1284359 28.2479906,3.02065125 28.1288584,2.89868257 C28.0097262,2.7767139 27.9147055,2.63772842 27.8437935,2.48172197 C27.7728815,2.32571553 27.737426,2.14276526 27.737426,1.93286567 C27.737426,1.80238755 27.7544446,1.65489276 27.7884824,1.49037687 C27.9019416,0.968464396 28.1472935,0.588381664 28.5245455,0.350117272 C28.9017975,0.111852881 29.3854102,-0.00727752769 29.9753982,-0.00727752769 C30.3214489,-0.00727752769 30.6377117,0.0267597319 30.9241963,0.0948352723 C31.2106809,0.162910813 31.4645421,0.242331085 31.6857876,0.333098472 L31.5155996,1.20956667 C31.3000271,1.16418298 31.0759484,1.12305462 30.843357,1.08618037 C30.6107656,1.04930612 30.361159,1.03086927 30.0945298,1.03086927 C29.8903032,1.03086927 29.7215351,1.04363324 29.5882205,1.06916157 C29.4549059,1.0946899 29.3471212,1.1315636 29.2648633,1.17978377 C29.1826054,1.22800395 29.1202037,1.29040559 29.0776565,1.36699057 C29.0351093,1.44357556 29.0024902,1.53292336 28.9797984,1.63503667 C28.9514336,1.76551479 28.9485972,1.87613589 28.971289,1.96690327 C28.9939808,2.05767066 29.0407821,2.13992737 29.1116941,2.21367587 C29.1826061,2.28742437 29.2804632,2.36117177 29.4052684,2.43492027 C29.5300736,2.50866877 29.6832412,2.59376192 29.864776,2.69020227 C30.0576567,2.79231558 30.2363523,2.89584558 30.4008682,3.00079537 C30.5653841,3.10574516 30.707206,3.22203913 30.8263382,3.34968077 C30.9454704,3.47732241 31.0390729,3.61772611 31.1071484,3.77089607 C31.1752239,3.92406604 31.2092612,4.10276165 31.2092612,4.30698827 C31.2092612,4.47150416 31.1894061,4.63601758 31.1496954,4.80053347 C31.0816199,5.10120044 30.9752534,5.35364345 30.8305929,5.55787007 C30.6859324,5.76209669 30.5157461,5.9251919 30.3200289,6.04716057 C30.1243117,6.16912925 29.9101606,6.25705884 29.6775692,6.31095197 C29.4449778,6.36484511 29.206717,6.39179127 28.9627796,6.39179127 C28.605383,6.39179127 28.2678469,6.35066292 27.950161,6.26840497 C27.6324751,6.18614703 27.3488313,6.09396278 27.099221,5.99184947 L27.269409,5.11538127 Z M31.7297628,6.29818787 L32.9295882,0.0863258723 L34.1549418,0.0863258723 L32.9551164,6.29818787 L31.7297628,6.29818787 Z M34.1223324,6.29818787 L35.3221578,0.0863258723 L38.879087,0.0863258723 L38.6748614,1.12447267 L36.3092482,1.12447267 L36.028438,2.59659887 L38.1472786,2.59659887 L37.943053,3.63474567 L35.8242124,3.63474567 L35.5093646,5.26004107 L37.9770906,5.26004107 L37.7813744,6.29818787 L34.1223324,6.29818787 Z M38.7443648,6.29818787 L39.9441902,0.0863258723 L41.1695438,0.0863258723 L40.173944,5.23451287 L42.556576,5.23451287 L42.3523504,6.29818787 L38.7443648,6.29818787 Z M43.1791904,6.29818787 L44.3790158,0.0863258723 L45.6043694,0.0863258723 L44.6087696,5.23451287 L46.9914016,5.23451287 L46.787176,6.29818787 L43.1791904,6.29818787 Z M47.2821494,6.29818787 L50.3285146,0.0863258723 L51.7495844,0.0863258723 L52.3707706,6.29818787 L51.10287,6.29818787 L51.017776,4.86009927 L49.1712362,4.86009927 L48.5245218,6.29818787 L47.2821494,6.29818787 Z M49.6307438,3.84748067 L50.9582102,3.84748067 L50.805041,1.24360427 L49.6307438,3.84748067 Z" id="KLEBSIELLA" fill="#1EA69E" sketch:type="MSShapeGroup"></path>
            <path id="-" fill="#1EA69E" sketch:type="MSShapeGroup"></path>
            <path d="M1.880156,13.1904219 L2.603455,13.1904219 C2.89844901,13.1904219 3.13387339,13.126602 3.3097352,12.9989604 C3.48559701,12.8713187 3.60472742,12.6514948 3.66713,12.3394819 C3.68982185,12.2430415 3.7011676,12.1409297 3.7011676,12.0331435 C3.7011676,11.7948791 3.62883842,11.6119288 3.4841779,11.4842872 C3.33951738,11.3566455 3.11969341,11.2928257 2.8246994,11.2928257 L2.2460602,11.2928257 L1.880156,13.1904219 Z M0.0165974,16.5090879 L1.2164228,10.2972259 L3.1480566,10.2972259 C3.42603172,10.2972259 3.67563829,10.3383542 3.8968838,10.4206122 C4.11812931,10.5028701 4.30391602,10.6177459 4.4542495,10.7652429 C4.60458298,10.9127399 4.71945874,11.0885991 4.7988802,11.2928257 C4.87830166,11.4970523 4.9180118,11.7211309 4.9180118,11.9650683 C4.9180118,12.1125653 4.90666605,12.2515508 4.8839742,12.3820289 C4.82724458,12.7053877 4.7251328,12.9819404 4.5776358,13.2116954 C4.4301388,13.4414503 4.2528614,13.6286552 4.0457983,13.7733158 C3.8387352,13.9179763 3.60756548,14.0229245 3.3522822,14.0881636 C3.09699892,14.1534026 2.83321016,14.1860217 2.560908,14.1860217 L1.6929492,14.1860217 L1.241951,16.5090879 L0.0165974,16.5090879 Z M4.9107306,16.5090879 L6.110556,10.2972259 L7.2337968,10.2972259 L8.6718854,14.4923601 L9.4887878,10.2972259 L10.6460662,10.2972259 L9.4462408,16.5090879 L8.2974718,16.5090879 L6.8678926,12.3394819 L6.0594996,16.5090879 L4.9107306,16.5090879 Z M10.6132568,16.5090879 L11.8130822,10.2972259 L15.3700114,10.2972259 L15.1657858,11.3353727 L12.8001726,11.3353727 L12.5193624,12.8074989 L14.638203,12.8074989 L14.4339774,13.8456457 L12.3151368,13.8456457 L12.000289,15.4709411 L14.468015,15.4709411 L14.2722988,16.5090879 L10.6132568,16.5090879 Z M17.0135538,13.6924765 C16.9398053,14.061219 16.9029316,14.3703908 16.9029316,14.6200011 C16.9029316,14.8128818 16.9242049,14.9703041 16.9667521,15.0922728 C17.0092993,15.2142414 17.0688645,15.3106804 17.1454495,15.3815924 C17.2220345,15.4525044 17.3128005,15.5007238 17.4177503,15.5262522 C17.5227001,15.5517805 17.6404123,15.5645445 17.7708904,15.5645445 C17.9524252,15.5645445 18.1070111,15.5390165 18.2346527,15.4879599 C18.3622943,15.4369032 18.4743337,15.3433008 18.570774,15.2071497 C18.6672143,15.0709986 18.7523075,14.8823754 18.826056,14.6412746 C18.8998045,14.4001737 18.9763883,14.0867473 19.0558098,13.7009859 L19.7280524,10.2972259 L20.953406,10.2972259 L20.2386164,13.9647773 C20.153522,14.4072683 20.0429009,14.7944421 19.9067498,15.1263104 C19.7705987,15.4581786 19.6004124,15.7333131 19.3961858,15.9517222 C19.1919592,16.1701312 18.9508619,16.3332264 18.6728868,16.4410127 C18.3949117,16.5487989 18.0687213,16.6026913 17.6943058,16.6026913 C17.3142174,16.6026913 16.9965363,16.5516354 16.741253,16.4495221 C16.4859697,16.3474088 16.2803279,16.2084233 16.1243215,16.0325615 C15.9683151,15.8566997 15.8562757,15.6496397 15.7882002,15.4113753 C15.7201247,15.1731109 15.6860874,14.9178314 15.6860874,14.6455293 C15.6860874,14.3675541 15.7172882,14.0640553 15.7796908,13.7350235 L16.4519334,10.2972259 L17.677287,10.2972259 L17.0135538,13.6924765 Z M20.9120872,16.5090879 L22.1119126,10.2972259 L23.1245312,10.2972259 L24.1031122,13.2499877 L26.2389716,10.2972259 L27.3281748,10.2972259 L26.1283494,16.5090879 L24.9540522,16.5090879 L25.7454264,12.4330853 L24.290319,14.4413037 L23.5329824,14.4413037 L22.8607398,12.4245759 L22.0693656,16.5090879 L20.9120872,16.5090879 Z M28.7589822,16.4410127 C28.492353,16.3275534 28.2711108,16.1729676 28.095249,15.9772504 C27.9193872,15.7815332 27.7917475,15.5461088 27.712326,15.2709702 C27.6329045,14.9958315 27.5931944,14.6937509 27.5931944,14.3647191 C27.5931944,14.2002032 27.6031219,14.0300169 27.6229773,13.8541551 C27.6428327,13.6782933 27.6697788,13.4995976 27.7038166,13.3180629 C27.794584,12.8415341 27.9151326,12.4103955 28.0654661,12.0246341 C28.2157996,11.6388727 28.4072592,11.3112641 28.6398506,11.0417984 C28.872442,10.7723327 29.1489948,10.5652727 29.4695171,10.4206122 C29.7900394,10.2759516 30.1658675,10.2036225 30.5970126,10.2036225 C30.977101,10.2036225 31.3032914,10.258933 31.5755936,10.3695558 C31.8478958,10.4801785 32.0719744,10.6333462 32.2478362,10.8290634 C32.423698,11.0247806 32.5513377,11.2602049 32.6307592,11.5353436 C32.7101807,11.8104822 32.7498908,12.1125629 32.7498908,12.4415947 C32.7498908,12.6061106 32.7399633,12.7762969 32.7201079,12.9521587 C32.7002525,13.1280205 32.6733064,13.3067161 32.6392686,13.4882509 C32.5485012,13.9647797 32.4279526,14.3959183 32.2776191,14.7816797 C32.1272856,15.1674411 31.935826,15.4950497 31.7032346,15.7645154 C31.4706432,16.0339811 31.1940904,16.241041 30.8735681,16.3857016 C30.5530458,16.5303621 30.1772177,16.6026913 29.7460726,16.6026913 C29.3603112,16.6026913 29.0312844,16.5487989 28.7589822,16.4410127 L28.7589822,16.4410127 Z M28.903642,14.9773959 C28.9546987,15.1248929 29.0241914,15.2426051 29.1121223,15.330536 C29.2000532,15.4184669 29.3050014,15.4794503 29.4269701,15.5134881 C29.5489388,15.5475258 29.686506,15.5645445 29.839676,15.5645445 C30.0609215,15.5645445 30.2537993,15.5248343 30.4183152,15.4454129 C30.5828311,15.3659914 30.7260712,15.2411881 30.8480399,15.0709993 C30.9700086,14.9008104 31.0735386,14.6852411 31.158633,14.4242849 C31.2437274,14.1633286 31.3203113,13.8541569 31.3883868,13.4967603 C31.4280975,13.2811877 31.4578801,13.0840553 31.4777355,12.905357 C31.4975909,12.7266587 31.5075184,12.5635635 31.5075184,12.4160665 C31.5075184,12.1778021 31.4834087,11.9835061 31.4351885,11.8331726 C31.3869683,11.6828391 31.3188938,11.5637087 31.2309629,11.4757778 C31.143032,11.3878469 31.0380838,11.3268634 30.9161151,11.2928257 C30.7941464,11.2587879 30.6565792,11.2417693 30.5034092,11.2417693 C30.2821637,11.2417693 30.0892859,11.2814794 29.92477,11.3609009 C29.7602541,11.4403223 29.617014,11.5651256 29.4950453,11.7353145 C29.3730766,11.9055033 29.2695466,12.1210726 29.1844522,12.3820289 C29.0993578,12.6429851 29.0227739,12.9521569 28.9546984,13.3095535 C28.9149877,13.525126 28.8852051,13.7222585 28.8653497,13.9009568 C28.8454943,14.0796551 28.8355668,14.2427503 28.8355668,14.3902473 C28.8355668,14.6285117 28.8582583,14.8242259 28.903642,14.9773959 L28.903642,14.9773959 Z M33.006401,16.5090879 L34.2062264,10.2972259 L35.3294672,10.2972259 L36.7675558,14.4923601 L37.5844582,10.2972259 L38.7417366,10.2972259 L37.5419112,16.5090879 L36.3931422,16.5090879 L34.963563,12.3394819 L34.15517,16.5090879 L33.006401,16.5090879 Z M38.7089272,16.5090879 L39.9087526,10.2972259 L41.1341062,10.2972259 L39.9342808,16.5090879 L38.7089272,16.5090879 Z M40.6417892,16.5090879 L43.6881544,10.2972259 L45.1092242,10.2972259 L45.7304104,16.5090879 L44.4625098,16.5090879 L44.3774158,15.0709993 L42.530876,15.0709993 L41.8841616,16.5090879 L40.6417892,16.5090879 Z M42.9903836,14.0583807 L44.31785,14.0583807 L44.1646808,11.4545043 L42.9903836,14.0583807 Z M46.4294094,16.5090879 L47.6292348,10.2972259 L51.186164,10.2972259 L50.9819384,11.3353727 L48.6163252,11.3353727 L48.335515,12.8074989 L50.4543556,12.8074989 L50.25013,13.8456457 L48.1312894,13.8456457 L47.8164416,15.4709411 L50.2841676,15.4709411 L50.0884514,16.5090879 L46.4294094,16.5090879 Z" id="PNEUMONIAE" fill="#1EA69E" sketch:type="MSShapeGroup"></path>
            <path d="M0.433558,26.7212188 L0.433558,20.5093568 L2.6545114,20.5093568 C3.32959384,20.5093568 3.81887945,20.6455059 4.1223829,20.917808 C4.42588635,21.1901102 4.5776358,21.5815387 4.5776358,22.0921052 C4.5776358,22.4495018 4.51523416,22.7359821 4.390429,22.9515546 C4.26562384,23.1671272 4.07841891,23.3401499 3.8288086,23.470628 C4.14649446,23.5954332 4.37624596,23.7840563 4.51807,24.0365031 C4.65989404,24.2889499 4.730805,24.6023763 4.730805,24.9767918 C4.730805,25.243421 4.6939313,25.4831 4.6201828,25.6958361 C4.5464343,25.9085722 4.42446745,26.0915224 4.2542786,26.2446924 C4.08408975,26.3978624 3.8585929,26.5155746 3.5777813,26.5978325 C3.2969697,26.6800905 2.949506,26.7212188 2.5353798,26.7212188 L0.433558,26.7212188 Z M1.5908364,25.7341284 L2.5013422,25.7341284 C2.65451217,25.7341284 2.79349764,25.7227827 2.9183028,25.7000908 C3.04310796,25.677399 3.14947439,25.6334342 3.2374053,25.5681951 C3.32533621,25.5029561 3.39341073,25.4150265 3.4416309,25.3044037 C3.48985107,25.193781 3.5139608,25.0477044 3.5139608,24.8661696 C3.5139608,24.6903078 3.49268751,24.5456494 3.4501403,24.4321902 C3.40759309,24.318731 3.34377323,24.2308014 3.2586788,24.1683988 C3.17358437,24.1059962 3.07005438,24.0634497 2.9480857,24.0407578 C2.82611702,24.018066 2.68571333,24.0067202 2.5268704,24.0067202 L1.5908364,24.0067202 L1.5908364,25.7341284 Z M1.5908364,23.0621768 L2.4502858,23.0621768 C2.5977828,23.0621768 2.72684075,23.0522493 2.8374635,23.0323939 C2.94808625,23.0125385 3.04168872,22.9756648 3.1182737,22.9217717 C3.19485868,22.8678786 3.25300567,22.7898765 3.2927164,22.6877632 C3.33242713,22.5856499 3.3522822,22.4495009 3.3522822,22.279312 C3.3522822,22.1091232 3.33100891,21.9743923 3.2884617,21.8751155 C3.24591449,21.7758387 3.18351284,21.6978366 3.1012549,21.641107 C3.01899696,21.5843774 2.91972161,21.5475037 2.8034259,21.5304848 C2.68713019,21.5134659 2.5552358,21.5049566 2.4077388,21.5049566 L1.5908364,21.5049566 L1.5908364,23.0621768 Z M5.0809186,26.7212188 L6.9870242,20.5093568 L8.4761692,20.5093568 L10.3907842,26.7212188 L9.0548084,26.7212188 L8.6548666,25.2831302 L6.7232328,25.2831302 L6.3318004,26.7212188 L5.0809186,26.7212188 Z M6.9955336,24.2705116 L8.4251128,24.2705116 L7.7018138,21.6325976 L6.9955336,24.2705116 Z M14.765844,26.534012 C14.5502715,26.6134335 14.3134289,26.6800898 14.0553091,26.7339829 C13.7971893,26.787876 13.5064544,26.8148222 13.1830956,26.8148222 C12.6952209,26.8148222 12.288192,26.7467477 11.9619967,26.6105966 C11.6358014,26.4744455 11.3734309,26.2744766 11.1748772,26.0106839 C10.9763235,25.7468912 10.8359198,25.4192826 10.7536619,25.0278482 C10.671404,24.6364139 10.6302756,24.1854202 10.6302756,23.6748536 C10.6302756,23.1359223 10.6756586,22.6622371 10.766426,22.2537838 C10.8571934,21.8453306 11.0018517,21.504958 11.2004054,21.2326558 C11.3989591,20.9603537 11.6599114,20.7561301 11.9832702,20.619979 C12.306629,20.4838279 12.6980575,20.4157534 13.1575674,20.4157534 C13.4639073,20.4157534 13.7461329,20.4426996 14.0042527,20.4965927 C14.2623725,20.5504858 14.4992151,20.6171421 14.7147876,20.6965636 L14.7147876,21.5645224 C14.5275799,21.5418306 14.3105923,21.5191391 14.0638185,21.4964472 C13.8170447,21.4737554 13.5915478,21.4624096 13.3873212,21.4624096 C13.1093461,21.4624096 12.8753399,21.4950287 12.6852957,21.5602677 C12.4952515,21.6255068 12.3406656,21.7389643 12.2215334,21.9006437 C12.1024012,22.0623231 12.0173081,22.2807289 11.9662514,22.5558675 C11.9151947,22.8310062 11.8896668,23.1813063 11.8896668,23.6067784 C11.8896668,24.0322505 11.916613,24.3853871 11.9705061,24.6661987 C12.0243992,24.9470103 12.1123288,25.1682525 12.2342975,25.3299319 C12.3562662,25.4916113 12.5165249,25.6050689 12.7150786,25.6703079 C12.9136323,25.735547 13.157566,25.768166 13.446887,25.768166 C13.6738055,25.768166 13.9092298,25.755402 14.1531672,25.7298737 C14.3971046,25.7043454 14.6013281,25.6830721 14.765844,25.6660532 L14.765844,26.534012 Z M17.1582136,26.7212188 L17.1582136,21.5730318 L15.4563336,21.5730318 L15.4563336,20.5093568 L20.1109754,20.5093568 L20.1109754,21.5730318 L18.400586,21.5730318 L18.400586,26.7212188 L17.1582136,26.7212188 Z M20.9376154,26.7212188 L20.9376154,20.5093568 L24.6051668,20.5093568 L24.6051668,21.5475036 L22.1374408,21.5475036 L22.1374408,23.0196298 L24.3498848,23.0196298 L24.3498848,24.0577766 L22.1374408,24.0577766 L22.1374408,25.683072 L24.715789,25.683072 L24.715789,26.7212188 L20.9376154,26.7212188 Z M26.8273484,23.3514964 L27.5761756,23.3514964 C27.7463645,23.3514964 27.8938592,23.3373142 28.0186644,23.3089494 C28.1434696,23.2805846 28.2484178,23.2309469 28.3335122,23.1600349 C28.4186066,23.0891229 28.4810083,22.9941022 28.520719,22.87497 C28.5604297,22.7558378 28.5802848,22.6055066 28.5802848,22.4239718 C28.5802848,22.0722482 28.5008645,21.8311509 28.3420216,21.7006728 C28.1831787,21.5701947 27.9278992,21.5049566 27.5761756,21.5049566 L26.8273484,21.5049566 L26.8273484,23.3514964 Z M25.627523,26.7212188 L25.627523,20.5093568 L27.5761756,20.5093568 C28.3420254,20.5093568 28.9064767,20.6710338 29.2695462,20.9943926 C29.6326157,21.3177514 29.8141478,21.7800909 29.8141478,22.3814248 C29.8141478,22.7615132 29.7361457,23.1018858 29.5801393,23.4025528 C29.4241329,23.7032198 29.1589259,23.9358077 28.7845104,24.1003236 L29.2950744,25.4618276 C29.3461311,25.5979787 29.4085327,25.7071816 29.4822812,25.7894395 C29.5560297,25.8716975 29.6865059,25.9128258 29.8737136,25.9128258 L30.0353922,25.9128258 L30.0353922,26.7212188 C29.9389519,26.7382377 29.8425129,26.7510017 29.7460726,26.7595111 C29.6496323,26.7680206 29.5588662,26.7722752 29.4737718,26.7722752 C29.2865641,26.7722752 29.1263053,26.7524201 28.9929907,26.7127094 C28.8596761,26.6729987 28.7462186,26.6162699 28.6526147,26.5425214 C28.5590108,26.4687729 28.4810088,26.3794251 28.4186062,26.2744753 C28.3562036,26.1695255 28.2994749,26.0489769 28.2484182,25.9128258 L27.669779,24.321568 L26.8273484,24.321568 L26.8273484,26.7212188 L25.627523,26.7212188 Z M30.8620322,26.7212188 L30.8620322,20.5093568 L32.1044046,20.5093568 L32.1044046,26.7212188 L30.8620322,26.7212188 Z M34.513793,23.8024946 C34.513793,24.2222938 34.5308116,24.5598299 34.5648494,24.8151132 C34.5988872,25.0703965 34.6570342,25.2703654 34.7392921,25.4150259 C34.82155,25.5596864 34.9307529,25.6561253 35.066904,25.7043455 C35.2030551,25.7525657 35.3732414,25.7766754 35.577468,25.7766754 C35.7816946,25.7766754 35.9532991,25.7525657 36.0922867,25.7043455 C36.2312743,25.6561253 36.3447318,25.5611047 36.4326627,25.4192806 C36.5205936,25.2774566 36.5829952,25.0774877 36.6198695,24.8193679 C36.6567438,24.5612482 36.6751806,24.2251302 36.6751806,23.811004 L36.6751806,20.5093568 L37.917553,20.5093568 L37.917553,23.7854758 C37.917553,24.3130613 37.8792611,24.7668914 37.8026761,25.1469798 C37.7260911,25.5270682 37.595615,25.8404947 37.4112437,26.0872685 C37.2268724,26.3340423 36.9815205,26.5169926 36.6751806,26.6361248 C36.3688407,26.755257 35.9859215,26.8148222 35.5264116,26.8148222 C35.0669017,26.8148222 34.6896554,26.7566752 34.3946614,26.6403795 C34.0996674,26.5240838 33.8699159,26.34397 33.7054,26.1000326 C33.5408841,25.8560953 33.4274266,25.5455053 33.365024,25.1682533 C33.3026214,24.7910014 33.2714206,24.3442623 33.2714206,23.8280228 L33.2714206,20.5093568 L34.513793,20.5093568 L34.513793,23.8024946 Z M39.084569,26.7212188 L39.084569,20.5093568 L40.148244,20.5093568 L41.807577,23.4110622 L43.5009476,20.5093568 L44.488038,20.5093568 L44.488038,26.7212188 L43.3052314,26.7212188 L43.3052314,22.662235 L42.1564624,24.6449252 L41.3991258,24.6449252 L40.2673756,22.662235 L40.2673756,26.7212188 L39.084569,26.7212188 Z" id="BACTERIUM" fill="#1EA69E" sketch:type="MSShapeGroup"></path>
        </g>
    </g>
</svg>